<mxfile host="65bd71144e">
    <diagram id="zKgu3sjY8laGFjNHlgqu" name="Page-1">
        <mxGraphModel dx="2537" dy="916" grid="1" gridSize="10" guides="1" tooltips="1" connect="1" arrows="1" fold="1" page="1" pageScale="1" pageWidth="850" pageHeight="1100" math="0" shadow="0">
            <root>
                <mxCell id="0"/>
                <mxCell id="1" parent="0"/>
                <mxCell id="2" value="&lt;div style=&quot;color: rgb(255, 255, 255); background-color: rgb(20, 16, 38); font-family: Consolas, &amp;quot;Courier New&amp;quot;, monospace; font-size: 14px; line-height: 19px; white-space: pre;&quot;&gt;&lt;div&gt;&lt;span style=&quot;color: #00dbff;&quot;&gt;&quot;use client&quot;&lt;/span&gt;&lt;span style=&quot;color: #ffffff;&quot;&gt;;&lt;/span&gt;&lt;/div&gt;&lt;br&gt;&lt;div&gt;&lt;span style=&quot;color: #e281ff;&quot;&gt;import&lt;/span&gt;&lt;span style=&quot;color: #ffffff;&quot;&gt; &lt;/span&gt;&lt;span style=&quot;color: #f06e78;&quot;&gt;React&lt;/span&gt;&lt;span style=&quot;color: #ffffff;&quot;&gt; &lt;/span&gt;&lt;span style=&quot;color: #e281ff;&quot;&gt;from&lt;/span&gt;&lt;span style=&quot;color: #ffffff;&quot;&gt; &lt;/span&gt;&lt;span style=&quot;color: #00dbff;&quot;&gt;&quot;react&quot;&lt;/span&gt;&lt;span style=&quot;color: #ffffff;&quot;&gt;;&lt;/span&gt;&lt;/div&gt;&lt;div&gt;&lt;span style=&quot;color: #e281ff;&quot;&gt;import&lt;/span&gt;&lt;span style=&quot;color: #ffffff;&quot;&gt; { &lt;/span&gt;&lt;span style=&quot;color: #f06e78;&quot;&gt;motion&lt;/span&gt;&lt;span style=&quot;color: #ffffff;&quot;&gt; } &lt;/span&gt;&lt;span style=&quot;color: #e281ff;&quot;&gt;from&lt;/span&gt;&lt;span style=&quot;color: #ffffff;&quot;&gt; &lt;/span&gt;&lt;span style=&quot;color: #00dbff;&quot;&gt;&quot;framer-motion&quot;&lt;/span&gt;&lt;span style=&quot;color: #ffffff;&quot;&gt;;&lt;/span&gt;&lt;/div&gt;&lt;br&gt;&lt;div&gt;&lt;span style=&quot;color: #e281ff;&quot;&gt;interface&lt;/span&gt;&lt;span style=&quot;color: #ffffff;&quot;&gt; &lt;/span&gt;&lt;span style=&quot;color: #01ffa0;&quot;&gt;PreloadProps&lt;/span&gt;&lt;span style=&quot;color: #ffffff;&quot;&gt; {&lt;/span&gt;&lt;/div&gt;&lt;div&gt;&lt;span style=&quot;color: #ffffff;&quot;&gt;&amp;nbsp; &lt;/span&gt;&lt;span style=&quot;color: #f06e78;&quot;&gt;isLoading&lt;/span&gt;&lt;span style=&quot;color: #ffffff;&quot;&gt;: &lt;/span&gt;&lt;span style=&quot;color: #01ffa0;&quot;&gt;boolean&lt;/span&gt;&lt;span style=&quot;color: #ffffff;&quot;&gt;;&lt;/span&gt;&lt;/div&gt;&lt;div&gt;&lt;span style=&quot;color: #ffffff;&quot;&gt;&amp;nbsp; &lt;/span&gt;&lt;span style=&quot;color: #f06e78;&quot;&gt;loadingText&lt;/span&gt;&lt;span style=&quot;color: #e281ff;&quot;&gt;?&lt;/span&gt;&lt;span style=&quot;color: #ffffff;&quot;&gt;: &lt;/span&gt;&lt;span style=&quot;color: #01ffa0;&quot;&gt;string&lt;/span&gt;&lt;span style=&quot;color: #ffffff;&quot;&gt;; &lt;/span&gt;&lt;span style=&quot;color: #8a8a8a;font-style: italic;&quot;&gt;// New optional prop for custom loading text&lt;/span&gt;&lt;/div&gt;&lt;div&gt;&lt;span style=&quot;color: #ffffff;&quot;&gt;}&lt;/span&gt;&lt;/div&gt;&lt;br&gt;&lt;div&gt;&lt;span style=&quot;color: #e281ff;&quot;&gt;const&lt;/span&gt;&lt;span style=&quot;color: #ffffff;&quot;&gt; &lt;/span&gt;&lt;span style=&quot;color: #01ffa0;&quot;&gt;Preload&lt;/span&gt;&lt;span style=&quot;color: #ffffff;&quot;&gt;: &lt;/span&gt;&lt;span style=&quot;color: #01ffa0;&quot;&gt;React&lt;/span&gt;&lt;span style=&quot;color: #ffffff;&quot;&gt;.&lt;/span&gt;&lt;span style=&quot;color: #01ffa0;&quot;&gt;FC&lt;/span&gt;&lt;span style=&quot;color: #ffffff;&quot;&gt;&amp;lt;&lt;/span&gt;&lt;span style=&quot;color: #01ffa0;&quot;&gt;PreloadProps&lt;/span&gt;&lt;span style=&quot;color: #ffffff;&quot;&gt;&amp;gt; &lt;/span&gt;&lt;span style=&quot;color: #0bb4f7;&quot;&gt;=&lt;/span&gt;&lt;span style=&quot;color: #ffffff;&quot;&gt; ({ &lt;/span&gt;&lt;span style=&quot;color: #f06e78;font-style: italic;&quot;&gt;isLoading&lt;/span&gt;&lt;span style=&quot;color: #ffffff;&quot;&gt;, &lt;/span&gt;&lt;span style=&quot;color: #f06e78;font-style: italic;&quot;&gt;loadingText&lt;/span&gt;&lt;span style=&quot;color: #ffffff;&quot;&gt; &lt;/span&gt;&lt;span style=&quot;color: #0bb4f7;&quot;&gt;=&lt;/span&gt;&lt;span style=&quot;color: #ffffff;&quot;&gt; &lt;/span&gt;&lt;span style=&quot;color: #00dbff;&quot;&gt;&quot;Carregando...&quot;&lt;/span&gt;&lt;span style=&quot;color: #ffffff;&quot;&gt; }) &lt;/span&gt;&lt;span style=&quot;color: #e281ff;&quot;&gt;=&amp;gt;&lt;/span&gt;&lt;span style=&quot;color: #ffffff;&quot;&gt; {&lt;/span&gt;&lt;/div&gt;&lt;div&gt;&lt;span style=&quot;color: #ffffff;&quot;&gt;&amp;nbsp; &lt;/span&gt;&lt;span style=&quot;color: #e281ff;&quot;&gt;if&lt;/span&gt;&lt;span style=&quot;color: #ffffff;&quot;&gt; (&lt;/span&gt;&lt;span style=&quot;color: #0bb4f7;&quot;&gt;!&lt;/span&gt;&lt;span style=&quot;color: #f06e78;font-style: italic;&quot;&gt;isLoading&lt;/span&gt;&lt;span style=&quot;color: #ffffff;&quot;&gt;) &lt;/span&gt;&lt;span style=&quot;color: #e281ff;&quot;&gt;return&lt;/span&gt;&lt;span style=&quot;color: #ffffff;&quot;&gt; &lt;/span&gt;&lt;span style=&quot;color: #5ff0dc;&quot;&gt;null&lt;/span&gt;&lt;span style=&quot;color: #ffffff;&quot;&gt;;&lt;/span&gt;&lt;/div&gt;&lt;br&gt;&lt;div&gt;&lt;span style=&quot;color: #ffffff;&quot;&gt;&amp;nbsp; &lt;/span&gt;&lt;span style=&quot;color: #e281ff;&quot;&gt;return&lt;/span&gt;&lt;span style=&quot;color: #ffffff;&quot;&gt; (&lt;/span&gt;&lt;/div&gt;&lt;div&gt;&lt;span style=&quot;color: #ffffff;&quot;&gt;&amp;nbsp; &amp;nbsp; &lt;/span&gt;&lt;span style=&quot;color: #ffffff;&quot;&gt;&amp;lt;&lt;/span&gt;&lt;span style=&quot;color: #f06e78;&quot;&gt;div&lt;/span&gt;&lt;span style=&quot;color: #ffffff;&quot;&gt; &lt;/span&gt;&lt;span style=&quot;color: #5ff0dc;font-style: italic;&quot;&gt;className&lt;/span&gt;&lt;span style=&quot;color: #0bb4f7;&quot;&gt;=&lt;/span&gt;&lt;span style=&quot;color: #00dbff;&quot;&gt;&quot;fixed inset-0 z-50 flex items-center justify-center&quot;&lt;/span&gt;&lt;span style=&quot;color: #ffffff;&quot;&gt;&amp;gt;&lt;/span&gt;&lt;/div&gt;&lt;div&gt;&lt;span style=&quot;color: #ffffff;&quot;&gt;&amp;nbsp; &amp;nbsp; &amp;nbsp; &lt;/span&gt;&lt;span style=&quot;color: #e281ff;&quot;&gt;{&lt;/span&gt;&lt;span style=&quot;color: #8a8a8a;font-style: italic;&quot;&gt;/* Backdrop com fundo desfocado */&lt;/span&gt;&lt;span style=&quot;color: #e281ff;&quot;&gt;}&lt;/span&gt;&lt;/div&gt;&lt;div&gt;&lt;span style=&quot;color: #ffffff;&quot;&gt;&amp;nbsp; &amp;nbsp; &amp;nbsp; &lt;/span&gt;&lt;span style=&quot;color: #ffffff;&quot;&gt;&amp;lt;&lt;/span&gt;&lt;span style=&quot;color: #f06e78;&quot;&gt;div&lt;/span&gt;&lt;span style=&quot;color: #ffffff;&quot;&gt; &lt;/span&gt;&lt;span style=&quot;color: #5ff0dc;font-style: italic;&quot;&gt;className&lt;/span&gt;&lt;span style=&quot;color: #0bb4f7;&quot;&gt;=&lt;/span&gt;&lt;span style=&quot;color: #00dbff;&quot;&gt;&quot;absolute inset-0 bg-black/30 backdrop-blur-md&quot;&lt;/span&gt;&lt;span style=&quot;color: #ffffff;&quot;&gt; &lt;/span&gt;&lt;span style=&quot;color: #ffffff;&quot;&gt;/&amp;gt;&lt;/span&gt;&lt;/div&gt;&lt;br&gt;&lt;div&gt;&lt;span style=&quot;color: #ffffff;&quot;&gt;&amp;nbsp; &amp;nbsp; &amp;nbsp; &lt;/span&gt;&lt;span style=&quot;color: #e281ff;&quot;&gt;{&lt;/span&gt;&lt;span style=&quot;color: #8a8a8a;font-style: italic;&quot;&gt;/* Conteúdo central */&lt;/span&gt;&lt;span style=&quot;color: #e281ff;&quot;&gt;}&lt;/span&gt;&lt;/div&gt;&lt;div&gt;&lt;span style=&quot;color: #ffffff;&quot;&gt;&amp;nbsp; &amp;nbsp; &amp;nbsp; &lt;/span&gt;&lt;span style=&quot;color: #ffffff;&quot;&gt;&amp;lt;&lt;/span&gt;&lt;span style=&quot;color: #f06e78;&quot;&gt;div&lt;/span&gt;&lt;span style=&quot;color: #ffffff;&quot;&gt; &lt;/span&gt;&lt;span style=&quot;color: #5ff0dc;font-style: italic;&quot;&gt;className&lt;/span&gt;&lt;span style=&quot;color: #0bb4f7;&quot;&gt;=&lt;/span&gt;&lt;span style=&quot;color: #00dbff;&quot;&gt;&quot;relative z-10 flex flex-col items-center justify-center bg-background/80 backdrop-blur-sm p-10 rounded-xl&quot;&lt;/span&gt;&lt;span style=&quot;color: #ffffff;&quot;&gt;&amp;gt;&lt;/span&gt;&lt;/div&gt;&lt;div&gt;&lt;span style=&quot;color: #ffffff;&quot;&gt;&amp;nbsp; &amp;nbsp; &amp;nbsp; &amp;nbsp; &lt;/span&gt;&lt;span style=&quot;color: #e281ff;&quot;&gt;{&lt;/span&gt;&lt;span style=&quot;color: #8a8a8a;font-style: italic;&quot;&gt;/* Gráfico de carregamento */&lt;/span&gt;&lt;span style=&quot;color: #e281ff;&quot;&gt;}&lt;/span&gt;&lt;/div&gt;&lt;div&gt;&lt;span style=&quot;color: #ffffff;&quot;&gt;&amp;nbsp; &amp;nbsp; &amp;nbsp; &amp;nbsp; &lt;/span&gt;&lt;span style=&quot;color: #ffffff;&quot;&gt;&amp;lt;&lt;/span&gt;&lt;span style=&quot;color: #01ffa0;&quot;&gt;LineChartLoader&lt;/span&gt;&lt;span style=&quot;color: #ffffff;&quot;&gt; &lt;/span&gt;&lt;span style=&quot;color: #ffffff;&quot;&gt;/&amp;gt;&lt;/span&gt;&lt;/div&gt;&lt;br&gt;&lt;div&gt;&lt;span style=&quot;color: #ffffff;&quot;&gt;&amp;nbsp; &amp;nbsp; &amp;nbsp; &amp;nbsp; &lt;/span&gt;&lt;span style=&quot;color: #e281ff;&quot;&gt;{&lt;/span&gt;&lt;span style=&quot;color: #8a8a8a;font-style: italic;&quot;&gt;/* Texto de carregamento - agora usando o prop loadingText */&lt;/span&gt;&lt;span style=&quot;color: #e281ff;&quot;&gt;}&lt;/span&gt;&lt;/div&gt;&lt;div&gt;&lt;span style=&quot;color: #ffffff;&quot;&gt;&amp;nbsp; &amp;nbsp; &amp;nbsp; &amp;nbsp; &lt;/span&gt;&lt;span style=&quot;color: #ffffff;&quot;&gt;&amp;lt;&lt;/span&gt;&lt;span style=&quot;color: #f06e78;&quot;&gt;p&lt;/span&gt;&lt;span style=&quot;color: #ffffff;&quot;&gt; &lt;/span&gt;&lt;span style=&quot;color: #5ff0dc;font-style: italic;&quot;&gt;className&lt;/span&gt;&lt;span style=&quot;color: #0bb4f7;&quot;&gt;=&lt;/span&gt;&lt;span style=&quot;color: #00dbff;&quot;&gt;&quot;mt-6 text-xl font-medium text-foreground/80&quot;&lt;/span&gt;&lt;span style=&quot;color: #ffffff;&quot;&gt;&amp;gt;&lt;/span&gt;&lt;span style=&quot;color: #e281ff;&quot;&gt;{&lt;/span&gt;&lt;span style=&quot;color: #f06e78;font-style: italic;&quot;&gt;loadingText&lt;/span&gt;&lt;span style=&quot;color: #e281ff;&quot;&gt;}&lt;/span&gt;&lt;span style=&quot;color: #ffffff;&quot;&gt;&amp;lt;/&lt;/span&gt;&lt;span style=&quot;color: #f06e78;&quot;&gt;p&lt;/span&gt;&lt;span style=&quot;color: #ffffff;&quot;&gt;&amp;gt;&lt;/span&gt;&lt;/div&gt;&lt;div&gt;&lt;span style=&quot;color: #ffffff;&quot;&gt;&amp;nbsp; &amp;nbsp; &amp;nbsp; &lt;/span&gt;&lt;span style=&quot;color: #ffffff;&quot;&gt;&amp;lt;/&lt;/span&gt;&lt;span style=&quot;color: #f06e78;&quot;&gt;div&lt;/span&gt;&lt;span style=&quot;color: #ffffff;&quot;&gt;&amp;gt;&lt;/span&gt;&lt;/div&gt;&lt;div&gt;&lt;span style=&quot;color: #ffffff;&quot;&gt;&amp;nbsp; &amp;nbsp; &lt;/span&gt;&lt;span style=&quot;color: #ffffff;&quot;&gt;&amp;lt;/&lt;/span&gt;&lt;span style=&quot;color: #f06e78;&quot;&gt;div&lt;/span&gt;&lt;span style=&quot;color: #ffffff;&quot;&gt;&amp;gt;&lt;/span&gt;&lt;/div&gt;&lt;div&gt;&lt;span style=&quot;color: #ffffff;&quot;&gt;&amp;nbsp; );&lt;/span&gt;&lt;/div&gt;&lt;div&gt;&lt;span style=&quot;color: #ffffff;&quot;&gt;};&lt;/span&gt;&lt;/div&gt;&lt;br&gt;&lt;div&gt;&lt;span style=&quot;color: #8a8a8a;font-style: italic;&quot;&gt;// Componente de gráfico de linhas&lt;/span&gt;&lt;/div&gt;&lt;div&gt;&lt;span style=&quot;color: #e281ff;&quot;&gt;const&lt;/span&gt;&lt;span style=&quot;color: #ffffff;&quot;&gt; &lt;/span&gt;&lt;span style=&quot;color: #01ffa0;&quot;&gt;LineChartLoader&lt;/span&gt;&lt;span style=&quot;color: #ffffff;&quot;&gt;: &lt;/span&gt;&lt;span style=&quot;color: #01ffa0;&quot;&gt;React&lt;/span&gt;&lt;span style=&quot;color: #ffffff;&quot;&gt;.&lt;/span&gt;&lt;span style=&quot;color: #01ffa0;&quot;&gt;FC&lt;/span&gt;&lt;span style=&quot;color: #ffffff;&quot;&gt; &lt;/span&gt;&lt;span style=&quot;color: #0bb4f7;&quot;&gt;=&lt;/span&gt;&lt;span style=&quot;color: #ffffff;&quot;&gt; () &lt;/span&gt;&lt;span style=&quot;color: #e281ff;&quot;&gt;=&amp;gt;&lt;/span&gt;&lt;span style=&quot;color: #ffffff;&quot;&gt; {&lt;/span&gt;&lt;/div&gt;&lt;div&gt;&lt;span style=&quot;color: #ffffff;&quot;&gt;&amp;nbsp; &lt;/span&gt;&lt;span style=&quot;color: #e281ff;&quot;&gt;return&lt;/span&gt;&lt;span style=&quot;color: #ffffff;&quot;&gt; (&lt;/span&gt;&lt;/div&gt;&lt;div&gt;&lt;span style=&quot;color: #ffffff;&quot;&gt;&amp;nbsp; &amp;nbsp; &lt;/span&gt;&lt;span style=&quot;color: #ffffff;&quot;&gt;&amp;lt;&lt;/span&gt;&lt;span style=&quot;color: #f06e78;&quot;&gt;div&lt;/span&gt;&lt;span style=&quot;color: #ffffff;&quot;&gt; &lt;/span&gt;&lt;span style=&quot;color: #5ff0dc;font-style: italic;&quot;&gt;className&lt;/span&gt;&lt;span style=&quot;color: #0bb4f7;&quot;&gt;=&lt;/span&gt;&lt;span style=&quot;color: #00dbff;&quot;&gt;&quot;relative w-40 h-40 flex items-center justify-center&quot;&lt;/span&gt;&lt;span style=&quot;color: #ffffff;&quot;&gt;&amp;gt;&lt;/span&gt;&lt;/div&gt;&lt;div&gt;&lt;span style=&quot;color: #ffffff;&quot;&gt;&amp;nbsp; &amp;nbsp; &amp;nbsp; &lt;/span&gt;&lt;span style=&quot;color: #e281ff;&quot;&gt;{&lt;/span&gt;&lt;span style=&quot;color: #8a8a8a;font-style: italic;&quot;&gt;/* Círculo de fundo */&lt;/span&gt;&lt;span style=&quot;color: #e281ff;&quot;&gt;}&lt;/span&gt;&lt;/div&gt;&lt;div&gt;&lt;span style=&quot;color: #ffffff;&quot;&gt;&amp;nbsp; &amp;nbsp; &amp;nbsp; &lt;/span&gt;&lt;span style=&quot;color: #ffffff;&quot;&gt;&amp;lt;&lt;/span&gt;&lt;span style=&quot;color: #01ffa0;&quot;&gt;motion.div&lt;/span&gt;&lt;/div&gt;&lt;div&gt;&lt;span style=&quot;color: #ffffff;&quot;&gt;&amp;nbsp; &amp;nbsp; &amp;nbsp; &amp;nbsp; &lt;/span&gt;&lt;span style=&quot;color: #5ff0dc;font-style: italic;&quot;&gt;className&lt;/span&gt;&lt;span style=&quot;color: #0bb4f7;&quot;&gt;=&lt;/span&gt;&lt;span style=&quot;color: #00dbff;&quot;&gt;&quot;absolute inset-0 border-4 border-muted rounded-full&quot;&lt;/span&gt;&lt;/div&gt;&lt;div&gt;&lt;span style=&quot;color: #ffffff;&quot;&gt;&amp;nbsp; &amp;nbsp; &amp;nbsp; &amp;nbsp; &lt;/span&gt;&lt;span style=&quot;color: #5ff0dc;font-style: italic;&quot;&gt;initial&lt;/span&gt;&lt;span style=&quot;color: #0bb4f7;&quot;&gt;=&lt;/span&gt;&lt;span style=&quot;color: #e281ff;&quot;&gt;{&lt;/span&gt;&lt;span style=&quot;color: #ffffff;&quot;&gt;{ &lt;/span&gt;&lt;span style=&quot;color: #f06e78;&quot;&gt;opacity&lt;/span&gt;&lt;span style=&quot;color: #ffffff;&quot;&gt;: &lt;/span&gt;&lt;span style=&quot;color: #5ff0dc;&quot;&gt;0.3&lt;/span&gt;&lt;span style=&quot;color: #ffffff;&quot;&gt; }&lt;/span&gt;&lt;span style=&quot;color: #e281ff;&quot;&gt;}&lt;/span&gt;&lt;/div&gt;&lt;div&gt;&lt;span style=&quot;color: #ffffff;&quot;&gt;&amp;nbsp; &amp;nbsp; &amp;nbsp; &amp;nbsp; &lt;/span&gt;&lt;span style=&quot;color: #5ff0dc;font-style: italic;&quot;&gt;animate&lt;/span&gt;&lt;span style=&quot;color: #0bb4f7;&quot;&gt;=&lt;/span&gt;&lt;span style=&quot;color: #e281ff;&quot;&gt;{&lt;/span&gt;&lt;span style=&quot;color: #ffffff;&quot;&gt;{ &lt;/span&gt;&lt;span style=&quot;color: #f06e78;&quot;&gt;opacity&lt;/span&gt;&lt;span style=&quot;color: #ffffff;&quot;&gt;: [&lt;/span&gt;&lt;span style=&quot;color: #5ff0dc;&quot;&gt;0.3&lt;/span&gt;&lt;span style=&quot;color: #ffffff;&quot;&gt;, &lt;/span&gt;&lt;span style=&quot;color: #5ff0dc;&quot;&gt;0.6&lt;/span&gt;&lt;span style=&quot;color: #ffffff;&quot;&gt;, &lt;/span&gt;&lt;span style=&quot;color: #5ff0dc;&quot;&gt;0.3&lt;/span&gt;&lt;span style=&quot;color: #ffffff;&quot;&gt;] }&lt;/span&gt;&lt;span style=&quot;color: #e281ff;&quot;&gt;}&lt;/span&gt;&lt;/div&gt;&lt;div&gt;&lt;span style=&quot;color: #ffffff;&quot;&gt;&amp;nbsp; &amp;nbsp; &amp;nbsp; &amp;nbsp; &lt;/span&gt;&lt;span style=&quot;color: #5ff0dc;font-style: italic;&quot;&gt;transition&lt;/span&gt;&lt;span style=&quot;color: #0bb4f7;&quot;&gt;=&lt;/span&gt;&lt;span style=&quot;color: #e281ff;&quot;&gt;{&lt;/span&gt;&lt;span style=&quot;color: #ffffff;&quot;&gt;{ &lt;/span&gt;&lt;span style=&quot;color: #f06e78;&quot;&gt;duration&lt;/span&gt;&lt;span style=&quot;color: #ffffff;&quot;&gt;: &lt;/span&gt;&lt;span style=&quot;color: #5ff0dc;&quot;&gt;2&lt;/span&gt;&lt;span style=&quot;color: #ffffff;&quot;&gt;, &lt;/span&gt;&lt;span style=&quot;color: #f06e78;&quot;&gt;repeat&lt;/span&gt;&lt;span style=&quot;color: #ffffff;&quot;&gt;: &lt;/span&gt;&lt;span style=&quot;color: #5ff0dc;&quot;&gt;Infinity&lt;/span&gt;&lt;span style=&quot;color: #ffffff;&quot;&gt;, &lt;/span&gt;&lt;span style=&quot;color: #f06e78;&quot;&gt;ease&lt;/span&gt;&lt;span style=&quot;color: #ffffff;&quot;&gt;: &lt;/span&gt;&lt;span style=&quot;color: #00dbff;&quot;&gt;&quot;easeInOut&quot;&lt;/span&gt;&lt;span style=&quot;color: #ffffff;&quot;&gt; }&lt;/span&gt;&lt;span style=&quot;color: #e281ff;&quot;&gt;}&lt;/span&gt;&lt;/div&gt;&lt;div&gt;&lt;span style=&quot;color: #ffffff;&quot;&gt;&amp;nbsp; &amp;nbsp; &amp;nbsp; &lt;/span&gt;&lt;span style=&quot;color: #ffffff;&quot;&gt;/&amp;gt;&lt;/span&gt;&lt;/div&gt;&lt;br&gt;&lt;div&gt;&lt;span style=&quot;color: #ffffff;&quot;&gt;&amp;nbsp; &amp;nbsp; &amp;nbsp; &lt;/span&gt;&lt;span style=&quot;color: #e281ff;&quot;&gt;{&lt;/span&gt;&lt;span style=&quot;color: #8a8a8a;font-style: italic;&quot;&gt;/* Gráfico de linhas animado */&lt;/span&gt;&lt;span style=&quot;color: #e281ff;&quot;&gt;}&lt;/span&gt;&lt;/div&gt;&lt;div&gt;&lt;span style=&quot;color: #ffffff;&quot;&gt;&amp;nbsp; &amp;nbsp; &amp;nbsp; &lt;/span&gt;&lt;span style=&quot;color: #ffffff;&quot;&gt;&amp;lt;&lt;/span&gt;&lt;span style=&quot;color: #f06e78;&quot;&gt;svg&lt;/span&gt;&lt;span style=&quot;color: #ffffff;&quot;&gt; &lt;/span&gt;&lt;span style=&quot;color: #5ff0dc;font-style: italic;&quot;&gt;width&lt;/span&gt;&lt;span style=&quot;color: #0bb4f7;&quot;&gt;=&lt;/span&gt;&lt;span style=&quot;color: #00dbff;&quot;&gt;&quot;120&quot;&lt;/span&gt;&lt;span style=&quot;color: #ffffff;&quot;&gt; &lt;/span&gt;&lt;span style=&quot;color: #5ff0dc;font-style: italic;&quot;&gt;height&lt;/span&gt;&lt;span style=&quot;color: #0bb4f7;&quot;&gt;=&lt;/span&gt;&lt;span style=&quot;color: #00dbff;&quot;&gt;&quot;80&quot;&lt;/span&gt;&lt;span style=&quot;color: #ffffff;&quot;&gt; &lt;/span&gt;&lt;span style=&quot;color: #5ff0dc;font-style: italic;&quot;&gt;viewBox&lt;/span&gt;&lt;span style=&quot;color: #0bb4f7;&quot;&gt;=&lt;/span&gt;&lt;span style=&quot;color: #00dbff;&quot;&gt;&quot;0 0 120 80&quot;&lt;/span&gt;&lt;span style=&quot;color: #ffffff;&quot;&gt; &lt;/span&gt;&lt;span style=&quot;color: #5ff0dc;font-style: italic;&quot;&gt;className&lt;/span&gt;&lt;span style=&quot;color: #0bb4f7;&quot;&gt;=&lt;/span&gt;&lt;span style=&quot;color: #00dbff;&quot;&gt;&quot;overflow-visible&quot;&lt;/span&gt;&lt;span style=&quot;color: #ffffff;&quot;&gt;&amp;gt;&lt;/span&gt;&lt;/div&gt;&lt;div&gt;&lt;span style=&quot;color: #ffffff;&quot;&gt;&amp;nbsp; &amp;nbsp; &amp;nbsp; &amp;nbsp; &lt;/span&gt;&lt;span style=&quot;color: #e281ff;&quot;&gt;{&lt;/span&gt;&lt;span style=&quot;color: #8a8a8a;font-style: italic;&quot;&gt;/* Eixos X e Y */&lt;/span&gt;&lt;span style=&quot;color: #e281ff;&quot;&gt;}&lt;/span&gt;&lt;/div&gt;&lt;div&gt;&lt;span style=&quot;color: #ffffff;&quot;&gt;&amp;nbsp; &amp;nbsp; &amp;nbsp; &amp;nbsp; &lt;/span&gt;&lt;span style=&quot;color: #ffffff;&quot;&gt;&amp;lt;&lt;/span&gt;&lt;span style=&quot;color: #01ffa0;&quot;&gt;motion.line&lt;/span&gt;&lt;/div&gt;&lt;div&gt;&lt;span style=&quot;color: #ffffff;&quot;&gt;&amp;nbsp; &amp;nbsp; &amp;nbsp; &amp;nbsp; &amp;nbsp; &lt;/span&gt;&lt;span style=&quot;color: #5ff0dc;font-style: italic;&quot;&gt;x1&lt;/span&gt;&lt;span style=&quot;color: #0bb4f7;&quot;&gt;=&lt;/span&gt;&lt;span style=&quot;color: #00dbff;&quot;&gt;&quot;0&quot;&lt;/span&gt;&lt;span style=&quot;color: #ffffff;&quot;&gt; &lt;/span&gt;&lt;span style=&quot;color: #5ff0dc;font-style: italic;&quot;&gt;y1&lt;/span&gt;&lt;span style=&quot;color: #0bb4f7;&quot;&gt;=&lt;/span&gt;&lt;span style=&quot;color: #00dbff;&quot;&gt;&quot;80&quot;&lt;/span&gt;&lt;span style=&quot;color: #ffffff;&quot;&gt; &lt;/span&gt;&lt;span style=&quot;color: #5ff0dc;font-style: italic;&quot;&gt;x2&lt;/span&gt;&lt;span style=&quot;color: #0bb4f7;&quot;&gt;=&lt;/span&gt;&lt;span style=&quot;color: #00dbff;&quot;&gt;&quot;120&quot;&lt;/span&gt;&lt;span style=&quot;color: #ffffff;&quot;&gt; &lt;/span&gt;&lt;span style=&quot;color: #5ff0dc;font-style: italic;&quot;&gt;y2&lt;/span&gt;&lt;span style=&quot;color: #0bb4f7;&quot;&gt;=&lt;/span&gt;&lt;span style=&quot;color: #00dbff;&quot;&gt;&quot;80&quot;&lt;/span&gt;&lt;/div&gt;&lt;div&gt;&lt;span style=&quot;color: #ffffff;&quot;&gt;&amp;nbsp; &amp;nbsp; &amp;nbsp; &amp;nbsp; &amp;nbsp; &lt;/span&gt;&lt;span style=&quot;color: #5ff0dc;font-style: italic;&quot;&gt;stroke&lt;/span&gt;&lt;span style=&quot;color: #0bb4f7;&quot;&gt;=&lt;/span&gt;&lt;span style=&quot;color: #00dbff;&quot;&gt;&quot;currentColor&quot;&lt;/span&gt;&lt;/div&gt;&lt;div&gt;&lt;span style=&quot;color: #ffffff;&quot;&gt;&amp;nbsp; &amp;nbsp; &amp;nbsp; &amp;nbsp; &amp;nbsp; &lt;/span&gt;&lt;span style=&quot;color: #5ff0dc;font-style: italic;&quot;&gt;strokeOpacity&lt;/span&gt;&lt;span style=&quot;color: #0bb4f7;&quot;&gt;=&lt;/span&gt;&lt;span style=&quot;color: #00dbff;&quot;&gt;&quot;0.3&quot;&lt;/span&gt;&lt;/div&gt;&lt;div&gt;&lt;span style=&quot;color: #ffffff;&quot;&gt;&amp;nbsp; &amp;nbsp; &amp;nbsp; &amp;nbsp; &amp;nbsp; &lt;/span&gt;&lt;span style=&quot;color: #5ff0dc;font-style: italic;&quot;&gt;strokeWidth&lt;/span&gt;&lt;span style=&quot;color: #0bb4f7;&quot;&gt;=&lt;/span&gt;&lt;span style=&quot;color: #00dbff;&quot;&gt;&quot;2&quot;&lt;/span&gt;&lt;/div&gt;&lt;div&gt;&lt;span style=&quot;color: #ffffff;&quot;&gt;&amp;nbsp; &amp;nbsp; &amp;nbsp; &amp;nbsp; &amp;nbsp; &lt;/span&gt;&lt;span style=&quot;color: #5ff0dc;font-style: italic;&quot;&gt;initial&lt;/span&gt;&lt;span style=&quot;color: #0bb4f7;&quot;&gt;=&lt;/span&gt;&lt;span style=&quot;color: #e281ff;&quot;&gt;{&lt;/span&gt;&lt;span style=&quot;color: #ffffff;&quot;&gt;{ &lt;/span&gt;&lt;span style=&quot;color: #f06e78;&quot;&gt;pathLength&lt;/span&gt;&lt;span style=&quot;color: #ffffff;&quot;&gt;: &lt;/span&gt;&lt;span style=&quot;color: #5ff0dc;&quot;&gt;0&lt;/span&gt;&lt;span style=&quot;color: #ffffff;&quot;&gt; }&lt;/span&gt;&lt;span style=&quot;color: #e281ff;&quot;&gt;}&lt;/span&gt;&lt;/div&gt;&lt;div&gt;&lt;span style=&quot;color: #ffffff;&quot;&gt;&amp;nbsp; &amp;nbsp; &amp;nbsp; &amp;nbsp; &amp;nbsp; &lt;/span&gt;&lt;span style=&quot;color: #5ff0dc;font-style: italic;&quot;&gt;animate&lt;/span&gt;&lt;span style=&quot;color: #0bb4f7;&quot;&gt;=&lt;/span&gt;&lt;span style=&quot;color: #e281ff;&quot;&gt;{&lt;/span&gt;&lt;span style=&quot;color: #ffffff;&quot;&gt;{ &lt;/span&gt;&lt;span style=&quot;color: #f06e78;&quot;&gt;pathLength&lt;/span&gt;&lt;span style=&quot;color: #ffffff;&quot;&gt;: &lt;/span&gt;&lt;span style=&quot;color: #5ff0dc;&quot;&gt;1&lt;/span&gt;&lt;span style=&quot;color: #ffffff;&quot;&gt; }&lt;/span&gt;&lt;span style=&quot;color: #e281ff;&quot;&gt;}&lt;/span&gt;&lt;/div&gt;&lt;div&gt;&lt;span style=&quot;color: #ffffff;&quot;&gt;&amp;nbsp; &amp;nbsp; &amp;nbsp; &amp;nbsp; &amp;nbsp; &lt;/span&gt;&lt;span style=&quot;color: #5ff0dc;font-style: italic;&quot;&gt;transition&lt;/span&gt;&lt;span style=&quot;color: #0bb4f7;&quot;&gt;=&lt;/span&gt;&lt;span style=&quot;color: #e281ff;&quot;&gt;{&lt;/span&gt;&lt;span style=&quot;color: #ffffff;&quot;&gt;{ &lt;/span&gt;&lt;span style=&quot;color: #f06e78;&quot;&gt;duration&lt;/span&gt;&lt;span style=&quot;color: #ffffff;&quot;&gt;: &lt;/span&gt;&lt;span style=&quot;color: #5ff0dc;&quot;&gt;1&lt;/span&gt;&lt;span style=&quot;color: #ffffff;&quot;&gt;, &lt;/span&gt;&lt;span style=&quot;color: #f06e78;&quot;&gt;ease&lt;/span&gt;&lt;span style=&quot;color: #ffffff;&quot;&gt;: &lt;/span&gt;&lt;span style=&quot;color: #00dbff;&quot;&gt;&quot;easeInOut&quot;&lt;/span&gt;&lt;span style=&quot;color: #ffffff;&quot;&gt; }&lt;/span&gt;&lt;span style=&quot;color: #e281ff;&quot;&gt;}&lt;/span&gt;&lt;/div&gt;&lt;div&gt;&lt;span style=&quot;color: #ffffff;&quot;&gt;&amp;nbsp; &amp;nbsp; &amp;nbsp; &amp;nbsp; &lt;/span&gt;&lt;span style=&quot;color: #ffffff;&quot;&gt;/&amp;gt;&lt;/span&gt;&lt;/div&gt;&lt;div&gt;&lt;span style=&quot;color: #ffffff;&quot;&gt;&amp;nbsp; &amp;nbsp; &amp;nbsp; &amp;nbsp; &lt;/span&gt;&lt;span style=&quot;color: #ffffff;&quot;&gt;&amp;lt;&lt;/span&gt;&lt;span style=&quot;color: #01ffa0;&quot;&gt;motion.line&lt;/span&gt;&lt;/div&gt;&lt;div&gt;&lt;span style=&quot;color: #ffffff;&quot;&gt;&amp;nbsp; &amp;nbsp; &amp;nbsp; &amp;nbsp; &amp;nbsp; &lt;/span&gt;&lt;span style=&quot;color: #5ff0dc;font-style: italic;&quot;&gt;x1&lt;/span&gt;&lt;span style=&quot;color: #0bb4f7;&quot;&gt;=&lt;/span&gt;&lt;span style=&quot;color: #00dbff;&quot;&gt;&quot;0&quot;&lt;/span&gt;&lt;span style=&quot;color: #ffffff;&quot;&gt; &lt;/span&gt;&lt;span style=&quot;color: #5ff0dc;font-style: italic;&quot;&gt;y1&lt;/span&gt;&lt;span style=&quot;color: #0bb4f7;&quot;&gt;=&lt;/span&gt;&lt;span style=&quot;color: #00dbff;&quot;&gt;&quot;0&quot;&lt;/span&gt;&lt;span style=&quot;color: #ffffff;&quot;&gt; &lt;/span&gt;&lt;span style=&quot;color: #5ff0dc;font-style: italic;&quot;&gt;x2&lt;/span&gt;&lt;span style=&quot;color: #0bb4f7;&quot;&gt;=&lt;/span&gt;&lt;span style=&quot;color: #00dbff;&quot;&gt;&quot;0&quot;&lt;/span&gt;&lt;span style=&quot;color: #ffffff;&quot;&gt; &lt;/span&gt;&lt;span style=&quot;color: #5ff0dc;font-style: italic;&quot;&gt;y2&lt;/span&gt;&lt;span style=&quot;color: #0bb4f7;&quot;&gt;=&lt;/span&gt;&lt;span style=&quot;color: #00dbff;&quot;&gt;&quot;80&quot;&lt;/span&gt;&lt;/div&gt;&lt;div&gt;&lt;span style=&quot;color: #ffffff;&quot;&gt;&amp;nbsp; &amp;nbsp; &amp;nbsp; &amp;nbsp; &amp;nbsp; &lt;/span&gt;&lt;span style=&quot;color: #5ff0dc;font-style: italic;&quot;&gt;stroke&lt;/span&gt;&lt;span style=&quot;color: #0bb4f7;&quot;&gt;=&lt;/span&gt;&lt;span style=&quot;color: #00dbff;&quot;&gt;&quot;currentColor&quot;&lt;/span&gt;&lt;/div&gt;&lt;div&gt;&lt;span style=&quot;color: #ffffff;&quot;&gt;&amp;nbsp; &amp;nbsp; &amp;nbsp; &amp;nbsp; &amp;nbsp; &lt;/span&gt;&lt;span style=&quot;color: #5ff0dc;font-style: italic;&quot;&gt;strokeOpacity&lt;/span&gt;&lt;span style=&quot;color: #0bb4f7;&quot;&gt;=&lt;/span&gt;&lt;span style=&quot;color: #00dbff;&quot;&gt;&quot;0.3&quot;&lt;/span&gt;&lt;/div&gt;&lt;div&gt;&lt;span style=&quot;color: #ffffff;&quot;&gt;&amp;nbsp; &amp;nbsp; &amp;nbsp; &amp;nbsp; &amp;nbsp; &lt;/span&gt;&lt;span style=&quot;color: #5ff0dc;font-style: italic;&quot;&gt;strokeWidth&lt;/span&gt;&lt;span style=&quot;color: #0bb4f7;&quot;&gt;=&lt;/span&gt;&lt;span style=&quot;color: #00dbff;&quot;&gt;&quot;2&quot;&lt;/span&gt;&lt;/div&gt;&lt;div&gt;&lt;span style=&quot;color: #ffffff;&quot;&gt;&amp;nbsp; &amp;nbsp; &amp;nbsp; &amp;nbsp; &amp;nbsp; &lt;/span&gt;&lt;span style=&quot;color: #5ff0dc;font-style: italic;&quot;&gt;initial&lt;/span&gt;&lt;span style=&quot;color: #0bb4f7;&quot;&gt;=&lt;/span&gt;&lt;span style=&quot;color: #e281ff;&quot;&gt;{&lt;/span&gt;&lt;span style=&quot;color: #ffffff;&quot;&gt;{ &lt;/span&gt;&lt;span style=&quot;color: #f06e78;&quot;&gt;pathLength&lt;/span&gt;&lt;span style=&quot;color: #ffffff;&quot;&gt;: &lt;/span&gt;&lt;span style=&quot;color: #5ff0dc;&quot;&gt;0&lt;/span&gt;&lt;span style=&quot;color: #ffffff;&quot;&gt; }&lt;/span&gt;&lt;span style=&quot;color: #e281ff;&quot;&gt;}&lt;/span&gt;&lt;/div&gt;&lt;div&gt;&lt;span style=&quot;color: #ffffff;&quot;&gt;&amp;nbsp; &amp;nbsp; &amp;nbsp; &amp;nbsp; &amp;nbsp; &lt;/span&gt;&lt;span style=&quot;color: #5ff0dc;font-style: italic;&quot;&gt;animate&lt;/span&gt;&lt;span style=&quot;color: #0bb4f7;&quot;&gt;=&lt;/span&gt;&lt;span style=&quot;color: #e281ff;&quot;&gt;{&lt;/span&gt;&lt;span style=&quot;color: #ffffff;&quot;&gt;{ &lt;/span&gt;&lt;span style=&quot;color: #f06e78;&quot;&gt;pathLength&lt;/span&gt;&lt;span style=&quot;color: #ffffff;&quot;&gt;: &lt;/span&gt;&lt;span style=&quot;color: #5ff0dc;&quot;&gt;1&lt;/span&gt;&lt;span style=&quot;color: #ffffff;&quot;&gt; }&lt;/span&gt;&lt;span style=&quot;color: #e281ff;&quot;&gt;}&lt;/span&gt;&lt;/div&gt;&lt;div&gt;&lt;span style=&quot;color: #ffffff;&quot;&gt;&amp;nbsp; &amp;nbsp; &amp;nbsp; &amp;nbsp; &amp;nbsp; &lt;/span&gt;&lt;span style=&quot;color: #5ff0dc;font-style: italic;&quot;&gt;transition&lt;/span&gt;&lt;span style=&quot;color: #0bb4f7;&quot;&gt;=&lt;/span&gt;&lt;span style=&quot;color: #e281ff;&quot;&gt;{&lt;/span&gt;&lt;span style=&quot;color: #ffffff;&quot;&gt;{ &lt;/span&gt;&lt;span style=&quot;color: #f06e78;&quot;&gt;duration&lt;/span&gt;&lt;span style=&quot;color: #ffffff;&quot;&gt;: &lt;/span&gt;&lt;span style=&quot;color: #5ff0dc;&quot;&gt;1&lt;/span&gt;&lt;span style=&quot;color: #ffffff;&quot;&gt;, &lt;/span&gt;&lt;span style=&quot;color: #f06e78;&quot;&gt;ease&lt;/span&gt;&lt;span style=&quot;color: #ffffff;&quot;&gt;: &lt;/span&gt;&lt;span style=&quot;color: #00dbff;&quot;&gt;&quot;easeInOut&quot;&lt;/span&gt;&lt;span style=&quot;color: #ffffff;&quot;&gt; }&lt;/span&gt;&lt;span style=&quot;color: #e281ff;&quot;&gt;}&lt;/span&gt;&lt;/div&gt;&lt;div&gt;&lt;span style=&quot;color: #ffffff;&quot;&gt;&amp;nbsp; &amp;nbsp; &amp;nbsp; &amp;nbsp; &lt;/span&gt;&lt;span style=&quot;color: #ffffff;&quot;&gt;/&amp;gt;&lt;/span&gt;&lt;/div&gt;&lt;br&gt;&lt;div&gt;&lt;span style=&quot;color: #ffffff;&quot;&gt;&amp;nbsp; &amp;nbsp; &amp;nbsp; &amp;nbsp; &lt;/span&gt;&lt;span style=&quot;color: #e281ff;&quot;&gt;{&lt;/span&gt;&lt;span style=&quot;color: #8a8a8a;font-style: italic;&quot;&gt;/* Linha de dados animada */&lt;/span&gt;&lt;span style=&quot;color: #e281ff;&quot;&gt;}&lt;/span&gt;&lt;/div&gt;&lt;div&gt;&lt;span style=&quot;color: #ffffff;&quot;&gt;&amp;nbsp; &amp;nbsp; &amp;nbsp; &amp;nbsp; &lt;/span&gt;&lt;span style=&quot;color: #ffffff;&quot;&gt;&amp;lt;&lt;/span&gt;&lt;span style=&quot;color: #01ffa0;&quot;&gt;motion.path&lt;/span&gt;&lt;/div&gt;&lt;div&gt;&lt;span style=&quot;color: #ffffff;&quot;&gt;&amp;nbsp; &amp;nbsp; &amp;nbsp; &amp;nbsp; &amp;nbsp; &lt;/span&gt;&lt;span style=&quot;color: #5ff0dc;font-style: italic;&quot;&gt;d&lt;/span&gt;&lt;span style=&quot;color: #0bb4f7;&quot;&gt;=&lt;/span&gt;&lt;span style=&quot;color: #00dbff;&quot;&gt;&quot;M0,80 C20,50 40,60 60,30 S100,20 120,40&quot;&lt;/span&gt;&lt;/div&gt;&lt;div&gt;&lt;span style=&quot;color: #ffffff;&quot;&gt;&amp;nbsp; &amp;nbsp; &amp;nbsp; &amp;nbsp; &amp;nbsp; &lt;/span&gt;&lt;span style=&quot;color: #5ff0dc;font-style: italic;&quot;&gt;fill&lt;/span&gt;&lt;span style=&quot;color: #0bb4f7;&quot;&gt;=&lt;/span&gt;&lt;span style=&quot;color: #00dbff;&quot;&gt;&quot;none&quot;&lt;/span&gt;&lt;/div&gt;&lt;div&gt;&lt;span style=&quot;color: #ffffff;&quot;&gt;&amp;nbsp; &amp;nbsp; &amp;nbsp; &amp;nbsp; &amp;nbsp; &lt;/span&gt;&lt;span style=&quot;color: #5ff0dc;font-style: italic;&quot;&gt;stroke&lt;/span&gt;&lt;span style=&quot;color: #0bb4f7;&quot;&gt;=&lt;/span&gt;&lt;span style=&quot;color: #00dbff;&quot;&gt;&quot;hsl(var(--primary))&quot;&lt;/span&gt;&lt;/div&gt;&lt;div&gt;&lt;span style=&quot;color: #ffffff;&quot;&gt;&amp;nbsp; &amp;nbsp; &amp;nbsp; &amp;nbsp; &amp;nbsp; &lt;/span&gt;&lt;span style=&quot;color: #5ff0dc;font-style: italic;&quot;&gt;strokeWidth&lt;/span&gt;&lt;span style=&quot;color: #0bb4f7;&quot;&gt;=&lt;/span&gt;&lt;span style=&quot;color: #00dbff;&quot;&gt;&quot;3&quot;&lt;/span&gt;&lt;/div&gt;&lt;div&gt;&lt;span style=&quot;color: #ffffff;&quot;&gt;&amp;nbsp; &amp;nbsp; &amp;nbsp; &amp;nbsp; &amp;nbsp; &lt;/span&gt;&lt;span style=&quot;color: #5ff0dc;font-style: italic;&quot;&gt;strokeLinecap&lt;/span&gt;&lt;span style=&quot;color: #0bb4f7;&quot;&gt;=&lt;/span&gt;&lt;span style=&quot;color: #00dbff;&quot;&gt;&quot;round&quot;&lt;/span&gt;&lt;/div&gt;&lt;div&gt;&lt;span style=&quot;color: #ffffff;&quot;&gt;&amp;nbsp; &amp;nbsp; &amp;nbsp; &amp;nbsp; &amp;nbsp; &lt;/span&gt;&lt;span style=&quot;color: #5ff0dc;font-style: italic;&quot;&gt;initial&lt;/span&gt;&lt;span style=&quot;color: #0bb4f7;&quot;&gt;=&lt;/span&gt;&lt;span style=&quot;color: #e281ff;&quot;&gt;{&lt;/span&gt;&lt;span style=&quot;color: #ffffff;&quot;&gt;{ &lt;/span&gt;&lt;span style=&quot;color: #f06e78;&quot;&gt;pathLength&lt;/span&gt;&lt;span style=&quot;color: #ffffff;&quot;&gt;: &lt;/span&gt;&lt;span style=&quot;color: #5ff0dc;&quot;&gt;0&lt;/span&gt;&lt;span style=&quot;color: #ffffff;&quot;&gt;, &lt;/span&gt;&lt;span style=&quot;color: #f06e78;&quot;&gt;opacity&lt;/span&gt;&lt;span style=&quot;color: #ffffff;&quot;&gt;: &lt;/span&gt;&lt;span style=&quot;color: #5ff0dc;&quot;&gt;0&lt;/span&gt;&lt;span style=&quot;color: #ffffff;&quot;&gt; }&lt;/span&gt;&lt;span style=&quot;color: #e281ff;&quot;&gt;}&lt;/span&gt;&lt;/div&gt;&lt;div&gt;&lt;span style=&quot;color: #ffffff;&quot;&gt;&amp;nbsp; &amp;nbsp; &amp;nbsp; &amp;nbsp; &amp;nbsp; &lt;/span&gt;&lt;span style=&quot;color: #5ff0dc;font-style: italic;&quot;&gt;animate&lt;/span&gt;&lt;span style=&quot;color: #0bb4f7;&quot;&gt;=&lt;/span&gt;&lt;span style=&quot;color: #e281ff;&quot;&gt;{&lt;/span&gt;&lt;span style=&quot;color: #ffffff;&quot;&gt;{ &lt;/span&gt;&lt;span style=&quot;color: #f06e78;&quot;&gt;pathLength&lt;/span&gt;&lt;span style=&quot;color: #ffffff;&quot;&gt;: &lt;/span&gt;&lt;span style=&quot;color: #5ff0dc;&quot;&gt;1&lt;/span&gt;&lt;span style=&quot;color: #ffffff;&quot;&gt;, &lt;/span&gt;&lt;span style=&quot;color: #f06e78;&quot;&gt;opacity&lt;/span&gt;&lt;span style=&quot;color: #ffffff;&quot;&gt;: &lt;/span&gt;&lt;span style=&quot;color: #5ff0dc;&quot;&gt;1&lt;/span&gt;&lt;span style=&quot;color: #ffffff;&quot;&gt; }&lt;/span&gt;&lt;span style=&quot;color: #e281ff;&quot;&gt;}&lt;/span&gt;&lt;/div&gt;&lt;div&gt;&lt;span style=&quot;color: #ffffff;&quot;&gt;&amp;nbsp; &amp;nbsp; &amp;nbsp; &amp;nbsp; &amp;nbsp; &lt;/span&gt;&lt;span style=&quot;color: #5ff0dc;font-style: italic;&quot;&gt;transition&lt;/span&gt;&lt;span style=&quot;color: #0bb4f7;&quot;&gt;=&lt;/span&gt;&lt;span style=&quot;color: #e281ff;&quot;&gt;{&lt;/span&gt;&lt;span style=&quot;color: #ffffff;&quot;&gt;{ &lt;/span&gt;&lt;span style=&quot;color: #f06e78;&quot;&gt;duration&lt;/span&gt;&lt;span style=&quot;color: #ffffff;&quot;&gt;: &lt;/span&gt;&lt;span style=&quot;color: #5ff0dc;&quot;&gt;2&lt;/span&gt;&lt;span style=&quot;color: #ffffff;&quot;&gt;, &lt;/span&gt;&lt;span style=&quot;color: #f06e78;&quot;&gt;ease&lt;/span&gt;&lt;span style=&quot;color: #ffffff;&quot;&gt;: &lt;/span&gt;&lt;span style=&quot;color: #00dbff;&quot;&gt;&quot;easeInOut&quot;&lt;/span&gt;&lt;span style=&quot;color: #ffffff;&quot;&gt;, &lt;/span&gt;&lt;span style=&quot;color: #f06e78;&quot;&gt;repeat&lt;/span&gt;&lt;span style=&quot;color: #ffffff;&quot;&gt;: &lt;/span&gt;&lt;span style=&quot;color: #5ff0dc;&quot;&gt;Infinity&lt;/span&gt;&lt;span style=&quot;color: #ffffff;&quot;&gt;, &lt;/span&gt;&lt;span style=&quot;color: #f06e78;&quot;&gt;repeatType&lt;/span&gt;&lt;span style=&quot;color: #ffffff;&quot;&gt;: &lt;/span&gt;&lt;span style=&quot;color: #00dbff;&quot;&gt;&quot;reverse&quot;&lt;/span&gt;&lt;span style=&quot;color: #ffffff;&quot;&gt; }&lt;/span&gt;&lt;span style=&quot;color: #e281ff;&quot;&gt;}&lt;/span&gt;&lt;/div&gt;&lt;div&gt;&lt;span style=&quot;color: #ffffff;&quot;&gt;&amp;nbsp; &amp;nbsp; &amp;nbsp; &amp;nbsp; &lt;/span&gt;&lt;span style=&quot;color: #ffffff;&quot;&gt;/&amp;gt;&lt;/span&gt;&lt;/div&gt;&lt;br&gt;&lt;div&gt;&lt;span style=&quot;color: #ffffff;&quot;&gt;&amp;nbsp; &amp;nbsp; &amp;nbsp; &amp;nbsp; &lt;/span&gt;&lt;span style=&quot;color: #e281ff;&quot;&gt;{&lt;/span&gt;&lt;span style=&quot;color: #8a8a8a;font-style: italic;&quot;&gt;/* Pontos de dados */&lt;/span&gt;&lt;span style=&quot;color: #e281ff;&quot;&gt;}&lt;/span&gt;&lt;/div&gt;&lt;div&gt;&lt;span style=&quot;color: #ffffff;&quot;&gt;&amp;nbsp; &amp;nbsp; &amp;nbsp; &amp;nbsp; &lt;/span&gt;&lt;span style=&quot;color: #e281ff;&quot;&gt;{&lt;/span&gt;&lt;span style=&quot;color: #ffffff;&quot;&gt;[&lt;/span&gt;&lt;/div&gt;&lt;div&gt;&lt;span style=&quot;color: #ffffff;&quot;&gt;&amp;nbsp; &amp;nbsp; &amp;nbsp; &amp;nbsp; &amp;nbsp; { &lt;/span&gt;&lt;span style=&quot;color: #f06e78;&quot;&gt;x&lt;/span&gt;&lt;span style=&quot;color: #ffffff;&quot;&gt;: &lt;/span&gt;&lt;span style=&quot;color: #5ff0dc;&quot;&gt;0&lt;/span&gt;&lt;span style=&quot;color: #ffffff;&quot;&gt;, &lt;/span&gt;&lt;span style=&quot;color: #f06e78;&quot;&gt;y&lt;/span&gt;&lt;span style=&quot;color: #ffffff;&quot;&gt;: &lt;/span&gt;&lt;span style=&quot;color: #5ff0dc;&quot;&gt;80&lt;/span&gt;&lt;span style=&quot;color: #ffffff;&quot;&gt; },&lt;/span&gt;&lt;/div&gt;&lt;div&gt;&lt;span style=&quot;color: #ffffff;&quot;&gt;&amp;nbsp; &amp;nbsp; &amp;nbsp; &amp;nbsp; &amp;nbsp; { &lt;/span&gt;&lt;span style=&quot;color: #f06e78;&quot;&gt;x&lt;/span&gt;&lt;span style=&quot;color: #ffffff;&quot;&gt;: &lt;/span&gt;&lt;span style=&quot;color: #5ff0dc;&quot;&gt;30&lt;/span&gt;&lt;span style=&quot;color: #ffffff;&quot;&gt;, &lt;/span&gt;&lt;span style=&quot;color: #f06e78;&quot;&gt;y&lt;/span&gt;&lt;span style=&quot;color: #ffffff;&quot;&gt;: &lt;/span&gt;&lt;span style=&quot;color: #5ff0dc;&quot;&gt;50&lt;/span&gt;&lt;span style=&quot;color: #ffffff;&quot;&gt; },&lt;/span&gt;&lt;/div&gt;&lt;div&gt;&lt;span style=&quot;color: #ffffff;&quot;&gt;&amp;nbsp; &amp;nbsp; &amp;nbsp; &amp;nbsp; &amp;nbsp; { &lt;/span&gt;&lt;span style=&quot;color: #f06e78;&quot;&gt;x&lt;/span&gt;&lt;span style=&quot;color: #ffffff;&quot;&gt;: &lt;/span&gt;&lt;span style=&quot;color: #5ff0dc;&quot;&gt;60&lt;/span&gt;&lt;span style=&quot;color: #ffffff;&quot;&gt;, &lt;/span&gt;&lt;span style=&quot;color: #f06e78;&quot;&gt;y&lt;/span&gt;&lt;span style=&quot;color: #ffffff;&quot;&gt;: &lt;/span&gt;&lt;span style=&quot;color: #5ff0dc;&quot;&gt;30&lt;/span&gt;&lt;span style=&quot;color: #ffffff;&quot;&gt; },&lt;/span&gt;&lt;/div&gt;&lt;div&gt;&lt;span style=&quot;color: #ffffff;&quot;&gt;&amp;nbsp; &amp;nbsp; &amp;nbsp; &amp;nbsp; &amp;nbsp; { &lt;/span&gt;&lt;span style=&quot;color: #f06e78;&quot;&gt;x&lt;/span&gt;&lt;span style=&quot;color: #ffffff;&quot;&gt;: &lt;/span&gt;&lt;span style=&quot;color: #5ff0dc;&quot;&gt;90&lt;/span&gt;&lt;span style=&quot;color: #ffffff;&quot;&gt;, &lt;/span&gt;&lt;span style=&quot;color: #f06e78;&quot;&gt;y&lt;/span&gt;&lt;span style=&quot;color: #ffffff;&quot;&gt;: &lt;/span&gt;&lt;span style=&quot;color: #5ff0dc;&quot;&gt;20&lt;/span&gt;&lt;span style=&quot;color: #ffffff;&quot;&gt; },&lt;/span&gt;&lt;/div&gt;&lt;div&gt;&lt;span style=&quot;color: #ffffff;&quot;&gt;&amp;nbsp; &amp;nbsp; &amp;nbsp; &amp;nbsp; &amp;nbsp; { &lt;/span&gt;&lt;span style=&quot;color: #f06e78;&quot;&gt;x&lt;/span&gt;&lt;span style=&quot;color: #ffffff;&quot;&gt;: &lt;/span&gt;&lt;span style=&quot;color: #5ff0dc;&quot;&gt;120&lt;/span&gt;&lt;span style=&quot;color: #ffffff;&quot;&gt;, &lt;/span&gt;&lt;span style=&quot;color: #f06e78;&quot;&gt;y&lt;/span&gt;&lt;span style=&quot;color: #ffffff;&quot;&gt;: &lt;/span&gt;&lt;span style=&quot;color: #5ff0dc;&quot;&gt;40&lt;/span&gt;&lt;span style=&quot;color: #ffffff;&quot;&gt; }&lt;/span&gt;&lt;/div&gt;&lt;div&gt;&lt;span style=&quot;color: #ffffff;&quot;&gt;&amp;nbsp; &amp;nbsp; &amp;nbsp; &amp;nbsp; ].&lt;/span&gt;&lt;span style=&quot;color: #42aaff;&quot;&gt;map&lt;/span&gt;&lt;span style=&quot;color: #ffffff;&quot;&gt;((&lt;/span&gt;&lt;span style=&quot;color: #f06e78;font-style: italic;&quot;&gt;point&lt;/span&gt;&lt;span style=&quot;color: #ffffff;&quot;&gt;, &lt;/span&gt;&lt;span style=&quot;color: #f06e78;font-style: italic;&quot;&gt;index&lt;/span&gt;&lt;span style=&quot;color: #ffffff;&quot;&gt;) &lt;/span&gt;&lt;span style=&quot;color: #e281ff;&quot;&gt;=&amp;gt;&lt;/span&gt;&lt;span style=&quot;color: #ffffff;&quot;&gt; (&lt;/span&gt;&lt;/div&gt;&lt;div&gt;&lt;span style=&quot;color: #ffffff;&quot;&gt;&amp;nbsp; &amp;nbsp; &amp;nbsp; &amp;nbsp; &amp;nbsp; &lt;/span&gt;&lt;span style=&quot;color: #ffffff;&quot;&gt;&amp;lt;&lt;/span&gt;&lt;span style=&quot;color: #01ffa0;&quot;&gt;motion.circle&lt;/span&gt;&lt;/div&gt;&lt;div&gt;&lt;span style=&quot;color: #ffffff;&quot;&gt;&amp;nbsp; &amp;nbsp; &amp;nbsp; &amp;nbsp; &amp;nbsp; &amp;nbsp; &lt;/span&gt;&lt;span style=&quot;color: #5ff0dc;font-style: italic;&quot;&gt;key&lt;/span&gt;&lt;span style=&quot;color: #0bb4f7;&quot;&gt;=&lt;/span&gt;&lt;span style=&quot;color: #e281ff;&quot;&gt;{&lt;/span&gt;&lt;span style=&quot;color: #f06e78;font-style: italic;&quot;&gt;index&lt;/span&gt;&lt;span style=&quot;color: #e281ff;&quot;&gt;}&lt;/span&gt;&lt;/div&gt;&lt;div&gt;&lt;span style=&quot;color: #ffffff;&quot;&gt;&amp;nbsp; &amp;nbsp; &amp;nbsp; &amp;nbsp; &amp;nbsp; &amp;nbsp; &lt;/span&gt;&lt;span style=&quot;color: #5ff0dc;font-style: italic;&quot;&gt;cx&lt;/span&gt;&lt;span style=&quot;color: #0bb4f7;&quot;&gt;=&lt;/span&gt;&lt;span style=&quot;color: #e281ff;&quot;&gt;{&lt;/span&gt;&lt;span style=&quot;color: #f06e78;font-style: italic;&quot;&gt;point&lt;/span&gt;&lt;span style=&quot;color: #ffffff;&quot;&gt;.&lt;/span&gt;&lt;span style=&quot;color: #f06e78;&quot;&gt;x&lt;/span&gt;&lt;span style=&quot;color: #e281ff;&quot;&gt;}&lt;/span&gt;&lt;/div&gt;&lt;div&gt;&lt;span style=&quot;color: #ffffff;&quot;&gt;&amp;nbsp; &amp;nbsp; &amp;nbsp; &amp;nbsp; &amp;nbsp; &amp;nbsp; &lt;/span&gt;&lt;span style=&quot;color: #5ff0dc;font-style: italic;&quot;&gt;cy&lt;/span&gt;&lt;span style=&quot;color: #0bb4f7;&quot;&gt;=&lt;/span&gt;&lt;span style=&quot;color: #e281ff;&quot;&gt;{&lt;/span&gt;&lt;span style=&quot;color: #f06e78;font-style: italic;&quot;&gt;point&lt;/span&gt;&lt;span style=&quot;color: #ffffff;&quot;&gt;.&lt;/span&gt;&lt;span style=&quot;color: #f06e78;&quot;&gt;y&lt;/span&gt;&lt;span style=&quot;color: #e281ff;&quot;&gt;}&lt;/span&gt;&lt;/div&gt;&lt;div&gt;&lt;span style=&quot;color: #ffffff;&quot;&gt;&amp;nbsp; &amp;nbsp; &amp;nbsp; &amp;nbsp; &amp;nbsp; &amp;nbsp; &lt;/span&gt;&lt;span style=&quot;color: #5ff0dc;font-style: italic;&quot;&gt;r&lt;/span&gt;&lt;span style=&quot;color: #0bb4f7;&quot;&gt;=&lt;/span&gt;&lt;span style=&quot;color: #00dbff;&quot;&gt;&quot;4&quot;&lt;/span&gt;&lt;/div&gt;&lt;div&gt;&lt;span style=&quot;color: #ffffff;&quot;&gt;&amp;nbsp; &amp;nbsp; &amp;nbsp; &amp;nbsp; &amp;nbsp; &amp;nbsp; &lt;/span&gt;&lt;span style=&quot;color: #5ff0dc;font-style: italic;&quot;&gt;fill&lt;/span&gt;&lt;span style=&quot;color: #0bb4f7;&quot;&gt;=&lt;/span&gt;&lt;span style=&quot;color: #00dbff;&quot;&gt;&quot;hsl(var(--primary))&quot;&lt;/span&gt;&lt;/div&gt;&lt;div&gt;&lt;span style=&quot;color: #ffffff;&quot;&gt;&amp;nbsp; &amp;nbsp; &amp;nbsp; &amp;nbsp; &amp;nbsp; &amp;nbsp; &lt;/span&gt;&lt;span style=&quot;color: #5ff0dc;font-style: italic;&quot;&gt;initial&lt;/span&gt;&lt;span style=&quot;color: #0bb4f7;&quot;&gt;=&lt;/span&gt;&lt;span style=&quot;color: #e281ff;&quot;&gt;{&lt;/span&gt;&lt;span style=&quot;color: #ffffff;&quot;&gt;{ &lt;/span&gt;&lt;span style=&quot;color: #f06e78;&quot;&gt;scale&lt;/span&gt;&lt;span style=&quot;color: #ffffff;&quot;&gt;: &lt;/span&gt;&lt;span style=&quot;color: #5ff0dc;&quot;&gt;0&lt;/span&gt;&lt;span style=&quot;color: #ffffff;&quot;&gt;, &lt;/span&gt;&lt;span style=&quot;color: #f06e78;&quot;&gt;opacity&lt;/span&gt;&lt;span style=&quot;color: #ffffff;&quot;&gt;: &lt;/span&gt;&lt;span style=&quot;color: #5ff0dc;&quot;&gt;0&lt;/span&gt;&lt;span style=&quot;color: #ffffff;&quot;&gt; }&lt;/span&gt;&lt;span style=&quot;color: #e281ff;&quot;&gt;}&lt;/span&gt;&lt;/div&gt;&lt;div&gt;&lt;span style=&quot;color: #ffffff;&quot;&gt;&amp;nbsp; &amp;nbsp; &amp;nbsp; &amp;nbsp; &amp;nbsp; &amp;nbsp; &lt;/span&gt;&lt;span style=&quot;color: #5ff0dc;font-style: italic;&quot;&gt;animate&lt;/span&gt;&lt;span style=&quot;color: #0bb4f7;&quot;&gt;=&lt;/span&gt;&lt;span style=&quot;color: #e281ff;&quot;&gt;{&lt;/span&gt;&lt;span style=&quot;color: #ffffff;&quot;&gt;{ &lt;/span&gt;&lt;span style=&quot;color: #f06e78;&quot;&gt;scale&lt;/span&gt;&lt;span style=&quot;color: #ffffff;&quot;&gt;: &lt;/span&gt;&lt;span style=&quot;color: #5ff0dc;&quot;&gt;1&lt;/span&gt;&lt;span style=&quot;color: #ffffff;&quot;&gt;, &lt;/span&gt;&lt;span style=&quot;color: #f06e78;&quot;&gt;opacity&lt;/span&gt;&lt;span style=&quot;color: #ffffff;&quot;&gt;: &lt;/span&gt;&lt;span style=&quot;color: #5ff0dc;&quot;&gt;1&lt;/span&gt;&lt;span style=&quot;color: #ffffff;&quot;&gt; }&lt;/span&gt;&lt;span style=&quot;color: #e281ff;&quot;&gt;}&lt;/span&gt;&lt;/div&gt;&lt;div&gt;&lt;span style=&quot;color: #ffffff;&quot;&gt;&amp;nbsp; &amp;nbsp; &amp;nbsp; &amp;nbsp; &amp;nbsp; &amp;nbsp; &lt;/span&gt;&lt;span style=&quot;color: #5ff0dc;font-style: italic;&quot;&gt;transition&lt;/span&gt;&lt;span style=&quot;color: #0bb4f7;&quot;&gt;=&lt;/span&gt;&lt;span style=&quot;color: #e281ff;&quot;&gt;{&lt;/span&gt;&lt;span style=&quot;color: #ffffff;&quot;&gt;{&lt;/span&gt;&lt;/div&gt;&lt;div&gt;&lt;span style=&quot;color: #ffffff;&quot;&gt;&amp;nbsp; &amp;nbsp; &amp;nbsp; &amp;nbsp; &amp;nbsp; &amp;nbsp; &amp;nbsp; &lt;/span&gt;&lt;span style=&quot;color: #f06e78;&quot;&gt;delay&lt;/span&gt;&lt;span style=&quot;color: #ffffff;&quot;&gt;: &lt;/span&gt;&lt;span style=&quot;color: #f06e78;font-style: italic;&quot;&gt;index&lt;/span&gt;&lt;span style=&quot;color: #ffffff;&quot;&gt; &lt;/span&gt;&lt;span style=&quot;color: #0bb4f7;&quot;&gt;*&lt;/span&gt;&lt;span style=&quot;color: #ffffff;&quot;&gt; &lt;/span&gt;&lt;span style=&quot;color: #5ff0dc;&quot;&gt;0.2&lt;/span&gt;&lt;span style=&quot;color: #ffffff;&quot;&gt;,&lt;/span&gt;&lt;/div&gt;&lt;div&gt;&lt;span style=&quot;color: #ffffff;&quot;&gt;&amp;nbsp; &amp;nbsp; &amp;nbsp; &amp;nbsp; &amp;nbsp; &amp;nbsp; &amp;nbsp; &lt;/span&gt;&lt;span style=&quot;color: #f06e78;&quot;&gt;duration&lt;/span&gt;&lt;span style=&quot;color: #ffffff;&quot;&gt;: &lt;/span&gt;&lt;span style=&quot;color: #5ff0dc;&quot;&gt;0.5&lt;/span&gt;&lt;span style=&quot;color: #ffffff;&quot;&gt;,&lt;/span&gt;&lt;/div&gt;&lt;div&gt;&lt;span style=&quot;color: #ffffff;&quot;&gt;&amp;nbsp; &amp;nbsp; &amp;nbsp; &amp;nbsp; &amp;nbsp; &amp;nbsp; &amp;nbsp; &lt;/span&gt;&lt;span style=&quot;color: #f06e78;&quot;&gt;repeat&lt;/span&gt;&lt;span style=&quot;color: #ffffff;&quot;&gt;: &lt;/span&gt;&lt;span style=&quot;color: #5ff0dc;&quot;&gt;Infinity&lt;/span&gt;&lt;span style=&quot;color: #ffffff;&quot;&gt;,&lt;/span&gt;&lt;/div&gt;&lt;div&gt;&lt;span style=&quot;color: #ffffff;&quot;&gt;&amp;nbsp; &amp;nbsp; &amp;nbsp; &amp;nbsp; &amp;nbsp; &amp;nbsp; &amp;nbsp; &lt;/span&gt;&lt;span style=&quot;color: #f06e78;&quot;&gt;repeatType&lt;/span&gt;&lt;span style=&quot;color: #ffffff;&quot;&gt;: &lt;/span&gt;&lt;span style=&quot;color: #00dbff;&quot;&gt;&quot;reverse&quot;&lt;/span&gt;&lt;span style=&quot;color: #ffffff;&quot;&gt;,&lt;/span&gt;&lt;/div&gt;&lt;div&gt;&lt;span style=&quot;color: #ffffff;&quot;&gt;&amp;nbsp; &amp;nbsp; &amp;nbsp; &amp;nbsp; &amp;nbsp; &amp;nbsp; &amp;nbsp; &lt;/span&gt;&lt;span style=&quot;color: #f06e78;&quot;&gt;repeatDelay&lt;/span&gt;&lt;span style=&quot;color: #ffffff;&quot;&gt;: &lt;/span&gt;&lt;span style=&quot;color: #5ff0dc;&quot;&gt;1.5&lt;/span&gt;&lt;span style=&quot;color: #ffffff;&quot;&gt; &lt;/span&gt;&lt;span style=&quot;color: #0bb4f7;&quot;&gt;-&lt;/span&gt;&lt;span style=&quot;color: #ffffff;&quot;&gt; (&lt;/span&gt;&lt;span style=&quot;color: #f06e78;font-style: italic;&quot;&gt;index&lt;/span&gt;&lt;span style=&quot;color: #ffffff;&quot;&gt; &lt;/span&gt;&lt;span style=&quot;color: #0bb4f7;&quot;&gt;*&lt;/span&gt;&lt;span style=&quot;color: #ffffff;&quot;&gt; &lt;/span&gt;&lt;span style=&quot;color: #5ff0dc;&quot;&gt;0.2&lt;/span&gt;&lt;span style=&quot;color: #ffffff;&quot;&gt;)&lt;/span&gt;&lt;/div&gt;&lt;div&gt;&lt;span style=&quot;color: #ffffff;&quot;&gt;&amp;nbsp; &amp;nbsp; &amp;nbsp; &amp;nbsp; &amp;nbsp; &amp;nbsp; }&lt;/span&gt;&lt;span style=&quot;color: #e281ff;&quot;&gt;}&lt;/span&gt;&lt;/div&gt;&lt;div&gt;&lt;span style=&quot;color: #ffffff;&quot;&gt;&amp;nbsp; &amp;nbsp; &amp;nbsp; &amp;nbsp; &amp;nbsp; &lt;/span&gt;&lt;span style=&quot;color: #ffffff;&quot;&gt;/&amp;gt;&lt;/span&gt;&lt;/div&gt;&lt;div&gt;&lt;span style=&quot;color: #ffffff;&quot;&gt;&amp;nbsp; &amp;nbsp; &amp;nbsp; &amp;nbsp; ))&lt;/span&gt;&lt;span style=&quot;color: #e281ff;&quot;&gt;}&lt;/span&gt;&lt;/div&gt;&lt;div&gt;&lt;span style=&quot;color: #ffffff;&quot;&gt;&amp;nbsp; &amp;nbsp; &amp;nbsp; &lt;/span&gt;&lt;span style=&quot;color: #ffffff;&quot;&gt;&amp;lt;/&lt;/span&gt;&lt;span style=&quot;color: #f06e78;&quot;&gt;svg&lt;/span&gt;&lt;span style=&quot;color: #ffffff;&quot;&gt;&amp;gt;&lt;/span&gt;&lt;/div&gt;&lt;br&gt;&lt;div&gt;&lt;span style=&quot;color: #ffffff;&quot;&gt;&amp;nbsp; &amp;nbsp; &amp;nbsp; &lt;/span&gt;&lt;span style=&quot;color: #e281ff;&quot;&gt;{&lt;/span&gt;&lt;span style=&quot;color: #8a8a8a;font-style: italic;&quot;&gt;/* Círculo de progresso */&lt;/span&gt;&lt;span style=&quot;color: #e281ff;&quot;&gt;}&lt;/span&gt;&lt;/div&gt;&lt;div&gt;&lt;span style=&quot;color: #ffffff;&quot;&gt;&amp;nbsp; &amp;nbsp; &amp;nbsp; &lt;/span&gt;&lt;span style=&quot;color: #ffffff;&quot;&gt;&amp;lt;&lt;/span&gt;&lt;span style=&quot;color: #01ffa0;&quot;&gt;motion.div&lt;/span&gt;&lt;/div&gt;&lt;div&gt;&lt;span style=&quot;color: #ffffff;&quot;&gt;&amp;nbsp; &amp;nbsp; &amp;nbsp; &amp;nbsp; &lt;/span&gt;&lt;span style=&quot;color: #5ff0dc;font-style: italic;&quot;&gt;className&lt;/span&gt;&lt;span style=&quot;color: #0bb4f7;&quot;&gt;=&lt;/span&gt;&lt;span style=&quot;color: #00dbff;&quot;&gt;&quot;absolute inset-0 border-4 border-l-primary border-t-primary border-r-transparent border-b-transparent rounded-full&quot;&lt;/span&gt;&lt;/div&gt;&lt;div&gt;&lt;span style=&quot;color: #ffffff;&quot;&gt;&amp;nbsp; &amp;nbsp; &amp;nbsp; &amp;nbsp; &lt;/span&gt;&lt;span style=&quot;color: #5ff0dc;font-style: italic;&quot;&gt;initial&lt;/span&gt;&lt;span style=&quot;color: #0bb4f7;&quot;&gt;=&lt;/span&gt;&lt;span style=&quot;color: #e281ff;&quot;&gt;{&lt;/span&gt;&lt;span style=&quot;color: #ffffff;&quot;&gt;{ &lt;/span&gt;&lt;span style=&quot;color: #f06e78;&quot;&gt;rotate&lt;/span&gt;&lt;span style=&quot;color: #ffffff;&quot;&gt;: &lt;/span&gt;&lt;span style=&quot;color: #5ff0dc;&quot;&gt;0&lt;/span&gt;&lt;span style=&quot;color: #ffffff;&quot;&gt; }&lt;/span&gt;&lt;span style=&quot;color: #e281ff;&quot;&gt;}&lt;/span&gt;&lt;/div&gt;&lt;div&gt;&lt;span style=&quot;color: #ffffff;&quot;&gt;&amp;nbsp; &amp;nbsp; &amp;nbsp; &amp;nbsp; &lt;/span&gt;&lt;span style=&quot;color: #5ff0dc;font-style: italic;&quot;&gt;animate&lt;/span&gt;&lt;span style=&quot;color: #0bb4f7;&quot;&gt;=&lt;/span&gt;&lt;span style=&quot;color: #e281ff;&quot;&gt;{&lt;/span&gt;&lt;span style=&quot;color: #ffffff;&quot;&gt;{ &lt;/span&gt;&lt;span style=&quot;color: #f06e78;&quot;&gt;rotate&lt;/span&gt;&lt;span style=&quot;color: #ffffff;&quot;&gt;: &lt;/span&gt;&lt;span style=&quot;color: #5ff0dc;&quot;&gt;360&lt;/span&gt;&lt;span style=&quot;color: #ffffff;&quot;&gt; }&lt;/span&gt;&lt;span style=&quot;color: #e281ff;&quot;&gt;}&lt;/span&gt;&lt;/div&gt;&lt;div&gt;&lt;span style=&quot;color: #ffffff;&quot;&gt;&amp;nbsp; &amp;nbsp; &amp;nbsp; &amp;nbsp; &lt;/span&gt;&lt;span style=&quot;color: #5ff0dc;font-style: italic;&quot;&gt;transition&lt;/span&gt;&lt;span style=&quot;color: #0bb4f7;&quot;&gt;=&lt;/span&gt;&lt;span style=&quot;color: #e281ff;&quot;&gt;{&lt;/span&gt;&lt;span style=&quot;color: #ffffff;&quot;&gt;{ &lt;/span&gt;&lt;span style=&quot;color: #f06e78;&quot;&gt;duration&lt;/span&gt;&lt;span style=&quot;color: #ffffff;&quot;&gt;: &lt;/span&gt;&lt;span style=&quot;color: #5ff0dc;&quot;&gt;2&lt;/span&gt;&lt;span style=&quot;color: #ffffff;&quot;&gt;, &lt;/span&gt;&lt;span style=&quot;color: #f06e78;&quot;&gt;repeat&lt;/span&gt;&lt;span style=&quot;color: #ffffff;&quot;&gt;: &lt;/span&gt;&lt;span style=&quot;color: #5ff0dc;&quot;&gt;Infinity&lt;/span&gt;&lt;span style=&quot;color: #ffffff;&quot;&gt;, &lt;/span&gt;&lt;span style=&quot;color: #f06e78;&quot;&gt;ease&lt;/span&gt;&lt;span style=&quot;color: #ffffff;&quot;&gt;: &lt;/span&gt;&lt;span style=&quot;color: #00dbff;&quot;&gt;&quot;linear&quot;&lt;/span&gt;&lt;span style=&quot;color: #ffffff;&quot;&gt; }&lt;/span&gt;&lt;span style=&quot;color: #e281ff;&quot;&gt;}&lt;/span&gt;&lt;/div&gt;&lt;div&gt;&lt;span style=&quot;color: #ffffff;&quot;&gt;&amp;nbsp; &amp;nbsp; &amp;nbsp; &lt;/span&gt;&lt;span style=&quot;color: #ffffff;&quot;&gt;/&amp;gt;&lt;/span&gt;&lt;/div&gt;&lt;div&gt;&lt;span style=&quot;color: #ffffff;&quot;&gt;&amp;nbsp; &amp;nbsp; &lt;/span&gt;&lt;span style=&quot;color: #ffffff;&quot;&gt;&amp;lt;/&lt;/span&gt;&lt;span style=&quot;color: #f06e78;&quot;&gt;div&lt;/span&gt;&lt;span style=&quot;color: #ffffff;&quot;&gt;&amp;gt;&lt;/span&gt;&lt;/div&gt;&lt;div&gt;&lt;span style=&quot;color: #ffffff;&quot;&gt;&amp;nbsp; );&lt;/span&gt;&lt;/div&gt;&lt;div&gt;&lt;span style=&quot;color: #ffffff;&quot;&gt;};&lt;/span&gt;&lt;/div&gt;&lt;br&gt;&lt;div&gt;&lt;span style=&quot;color: #8a8a8a;font-style: italic;&quot;&gt;// Alternativa: Componente de gráfico de pizza&lt;/span&gt;&lt;/div&gt;&lt;div&gt;&lt;span style=&quot;color: #e281ff;&quot;&gt;const&lt;/span&gt;&lt;span style=&quot;color: #ffffff;&quot;&gt; &lt;/span&gt;&lt;span style=&quot;color: #01ffa0;&quot;&gt;PieChartLoader&lt;/span&gt;&lt;span style=&quot;color: #ffffff;&quot;&gt;: &lt;/span&gt;&lt;span style=&quot;color: #01ffa0;&quot;&gt;React&lt;/span&gt;&lt;span style=&quot;color: #ffffff;&quot;&gt;.&lt;/span&gt;&lt;span style=&quot;color: #01ffa0;&quot;&gt;FC&lt;/span&gt;&lt;span style=&quot;color: #ffffff;&quot;&gt; &lt;/span&gt;&lt;span style=&quot;color: #0bb4f7;&quot;&gt;=&lt;/span&gt;&lt;span style=&quot;color: #ffffff;&quot;&gt; () &lt;/span&gt;&lt;span style=&quot;color: #e281ff;&quot;&gt;=&amp;gt;&lt;/span&gt;&lt;span style=&quot;color: #ffffff;&quot;&gt; {&lt;/span&gt;&lt;/div&gt;&lt;div&gt;&lt;span style=&quot;color: #ffffff;&quot;&gt;&amp;nbsp; &lt;/span&gt;&lt;span style=&quot;color: #e281ff;&quot;&gt;return&lt;/span&gt;&lt;span style=&quot;color: #ffffff;&quot;&gt; (&lt;/span&gt;&lt;/div&gt;&lt;div&gt;&lt;span style=&quot;color: #ffffff;&quot;&gt;&amp;nbsp; &amp;nbsp; &lt;/span&gt;&lt;span style=&quot;color: #ffffff;&quot;&gt;&amp;lt;&lt;/span&gt;&lt;span style=&quot;color: #f06e78;&quot;&gt;div&lt;/span&gt;&lt;span style=&quot;color: #ffffff;&quot;&gt; &lt;/span&gt;&lt;span style=&quot;color: #5ff0dc;font-style: italic;&quot;&gt;className&lt;/span&gt;&lt;span style=&quot;color: #0bb4f7;&quot;&gt;=&lt;/span&gt;&lt;span style=&quot;color: #00dbff;&quot;&gt;&quot;relative w-40 h-40 flex items-center justify-center&quot;&lt;/span&gt;&lt;span style=&quot;color: #ffffff;&quot;&gt;&amp;gt;&lt;/span&gt;&lt;/div&gt;&lt;div&gt;&lt;span style=&quot;color: #ffffff;&quot;&gt;&amp;nbsp; &amp;nbsp; &amp;nbsp; &lt;/span&gt;&lt;span style=&quot;color: #e281ff;&quot;&gt;{&lt;/span&gt;&lt;span style=&quot;color: #8a8a8a;font-style: italic;&quot;&gt;/* Círculo de fundo */&lt;/span&gt;&lt;span style=&quot;color: #e281ff;&quot;&gt;}&lt;/span&gt;&lt;/div&gt;&lt;div&gt;&lt;span style=&quot;color: #ffffff;&quot;&gt;&amp;nbsp; &amp;nbsp; &amp;nbsp; &lt;/span&gt;&lt;span style=&quot;color: #ffffff;&quot;&gt;&amp;lt;&lt;/span&gt;&lt;span style=&quot;color: #f06e78;&quot;&gt;div&lt;/span&gt;&lt;span style=&quot;color: #ffffff;&quot;&gt; &lt;/span&gt;&lt;span style=&quot;color: #5ff0dc;font-style: italic;&quot;&gt;className&lt;/span&gt;&lt;span style=&quot;color: #0bb4f7;&quot;&gt;=&lt;/span&gt;&lt;span style=&quot;color: #00dbff;&quot;&gt;&quot;absolute inset-0 border-4 border-muted rounded-full&quot;&lt;/span&gt;&lt;span style=&quot;color: #ffffff;&quot;&gt; &lt;/span&gt;&lt;span style=&quot;color: #ffffff;&quot;&gt;/&amp;gt;&lt;/span&gt;&lt;/div&gt;&lt;br&gt;&lt;div&gt;&lt;span style=&quot;color: #ffffff;&quot;&gt;&amp;nbsp; &amp;nbsp; &amp;nbsp; &lt;/span&gt;&lt;span style=&quot;color: #e281ff;&quot;&gt;{&lt;/span&gt;&lt;span style=&quot;color: #8a8a8a;font-style: italic;&quot;&gt;/* Gráfico de pizza animado */&lt;/span&gt;&lt;span style=&quot;color: #e281ff;&quot;&gt;}&lt;/span&gt;&lt;/div&gt;&lt;div&gt;&lt;span style=&quot;color: #ffffff;&quot;&gt;&amp;nbsp; &amp;nbsp; &amp;nbsp; &lt;/span&gt;&lt;span style=&quot;color: #ffffff;&quot;&gt;&amp;lt;&lt;/span&gt;&lt;span style=&quot;color: #f06e78;&quot;&gt;svg&lt;/span&gt;&lt;span style=&quot;color: #ffffff;&quot;&gt; &lt;/span&gt;&lt;span style=&quot;color: #5ff0dc;font-style: italic;&quot;&gt;width&lt;/span&gt;&lt;span style=&quot;color: #0bb4f7;&quot;&gt;=&lt;/span&gt;&lt;span style=&quot;color: #00dbff;&quot;&gt;&quot;100%&quot;&lt;/span&gt;&lt;span style=&quot;color: #ffffff;&quot;&gt; &lt;/span&gt;&lt;span style=&quot;color: #5ff0dc;font-style: italic;&quot;&gt;height&lt;/span&gt;&lt;span style=&quot;color: #0bb4f7;&quot;&gt;=&lt;/span&gt;&lt;span style=&quot;color: #00dbff;&quot;&gt;&quot;100%&quot;&lt;/span&gt;&lt;span style=&quot;color: #ffffff;&quot;&gt; &lt;/span&gt;&lt;span style=&quot;color: #5ff0dc;font-style: italic;&quot;&gt;viewBox&lt;/span&gt;&lt;span style=&quot;color: #0bb4f7;&quot;&gt;=&lt;/span&gt;&lt;span style=&quot;color: #00dbff;&quot;&gt;&quot;0 0 100 100&quot;&lt;/span&gt;&lt;span style=&quot;color: #ffffff;&quot;&gt;&amp;gt;&lt;/span&gt;&lt;/div&gt;&lt;div&gt;&lt;span style=&quot;color: #ffffff;&quot;&gt;&amp;nbsp; &amp;nbsp; &amp;nbsp; &amp;nbsp; &lt;/span&gt;&lt;span style=&quot;color: #ffffff;&quot;&gt;&amp;lt;&lt;/span&gt;&lt;span style=&quot;color: #01ffa0;&quot;&gt;motion.circle&lt;/span&gt;&lt;/div&gt;&lt;div&gt;&lt;span style=&quot;color: #ffffff;&quot;&gt;&amp;nbsp; &amp;nbsp; &amp;nbsp; &amp;nbsp; &amp;nbsp; &lt;/span&gt;&lt;span style=&quot;color: #5ff0dc;font-style: italic;&quot;&gt;cx&lt;/span&gt;&lt;span style=&quot;color: #0bb4f7;&quot;&gt;=&lt;/span&gt;&lt;span style=&quot;color: #00dbff;&quot;&gt;&quot;50&quot;&lt;/span&gt;&lt;/div&gt;&lt;div&gt;&lt;span style=&quot;color: #ffffff;&quot;&gt;&amp;nbsp; &amp;nbsp; &amp;nbsp; &amp;nbsp; &amp;nbsp; &lt;/span&gt;&lt;span style=&quot;color: #5ff0dc;font-style: italic;&quot;&gt;cy&lt;/span&gt;&lt;span style=&quot;color: #0bb4f7;&quot;&gt;=&lt;/span&gt;&lt;span style=&quot;color: #00dbff;&quot;&gt;&quot;50&quot;&lt;/span&gt;&lt;/div&gt;&lt;div&gt;&lt;span style=&quot;color: #ffffff;&quot;&gt;&amp;nbsp; &amp;nbsp; &amp;nbsp; &amp;nbsp; &amp;nbsp; &lt;/span&gt;&lt;span style=&quot;color: #5ff0dc;font-style: italic;&quot;&gt;r&lt;/span&gt;&lt;span style=&quot;color: #0bb4f7;&quot;&gt;=&lt;/span&gt;&lt;span style=&quot;color: #00dbff;&quot;&gt;&quot;40&quot;&lt;/span&gt;&lt;/div&gt;&lt;div&gt;&lt;span style=&quot;color: #ffffff;&quot;&gt;&amp;nbsp; &amp;nbsp; &amp;nbsp; &amp;nbsp; &amp;nbsp; &lt;/span&gt;&lt;span style=&quot;color: #5ff0dc;font-style: italic;&quot;&gt;fill&lt;/span&gt;&lt;span style=&quot;color: #0bb4f7;&quot;&gt;=&lt;/span&gt;&lt;span style=&quot;color: #00dbff;&quot;&gt;&quot;transparent&quot;&lt;/span&gt;&lt;/div&gt;&lt;div&gt;&lt;span style=&quot;color: #ffffff;&quot;&gt;&amp;nbsp; &amp;nbsp; &amp;nbsp; &amp;nbsp; &amp;nbsp; &lt;/span&gt;&lt;span style=&quot;color: #5ff0dc;font-style: italic;&quot;&gt;stroke&lt;/span&gt;&lt;span style=&quot;color: #0bb4f7;&quot;&gt;=&lt;/span&gt;&lt;span style=&quot;color: #00dbff;&quot;&gt;&quot;hsl(var(--primary))&quot;&lt;/span&gt;&lt;/div&gt;&lt;div&gt;&lt;span style=&quot;color: #ffffff;&quot;&gt;&amp;nbsp; &amp;nbsp; &amp;nbsp; &amp;nbsp; &amp;nbsp; &lt;/span&gt;&lt;span style=&quot;color: #5ff0dc;font-style: italic;&quot;&gt;strokeWidth&lt;/span&gt;&lt;span style=&quot;color: #0bb4f7;&quot;&gt;=&lt;/span&gt;&lt;span style=&quot;color: #00dbff;&quot;&gt;&quot;15&quot;&lt;/span&gt;&lt;/div&gt;&lt;div&gt;&lt;span style=&quot;color: #ffffff;&quot;&gt;&amp;nbsp; &amp;nbsp; &amp;nbsp; &amp;nbsp; &amp;nbsp; &lt;/span&gt;&lt;span style=&quot;color: #5ff0dc;font-style: italic;&quot;&gt;strokeDasharray&lt;/span&gt;&lt;span style=&quot;color: #0bb4f7;&quot;&gt;=&lt;/span&gt;&lt;span style=&quot;color: #00dbff;&quot;&gt;&quot;251.2&quot;&lt;/span&gt;&lt;/div&gt;&lt;div&gt;&lt;span style=&quot;color: #ffffff;&quot;&gt;&amp;nbsp; &amp;nbsp; &amp;nbsp; &amp;nbsp; &amp;nbsp; &lt;/span&gt;&lt;span style=&quot;color: #5ff0dc;font-style: italic;&quot;&gt;strokeDashoffset&lt;/span&gt;&lt;span style=&quot;color: #0bb4f7;&quot;&gt;=&lt;/span&gt;&lt;span style=&quot;color: #00dbff;&quot;&gt;&quot;251.2&quot;&lt;/span&gt;&lt;/div&gt;&lt;div&gt;&lt;span style=&quot;color: #ffffff;&quot;&gt;&amp;nbsp; &amp;nbsp; &amp;nbsp; &amp;nbsp; &amp;nbsp; &lt;/span&gt;&lt;span style=&quot;color: #5ff0dc;font-style: italic;&quot;&gt;strokeLinecap&lt;/span&gt;&lt;span style=&quot;color: #0bb4f7;&quot;&gt;=&lt;/span&gt;&lt;span style=&quot;color: #00dbff;&quot;&gt;&quot;round&quot;&lt;/span&gt;&lt;/div&gt;&lt;div&gt;&lt;span style=&quot;color: #ffffff;&quot;&gt;&amp;nbsp; &amp;nbsp; &amp;nbsp; &amp;nbsp; &amp;nbsp; &lt;/span&gt;&lt;span style=&quot;color: #5ff0dc;font-style: italic;&quot;&gt;animate&lt;/span&gt;&lt;span style=&quot;color: #0bb4f7;&quot;&gt;=&lt;/span&gt;&lt;span style=&quot;color: #e281ff;&quot;&gt;{&lt;/span&gt;&lt;span style=&quot;color: #ffffff;&quot;&gt;{&lt;/span&gt;&lt;/div&gt;&lt;div&gt;&lt;span style=&quot;color: #ffffff;&quot;&gt;&amp;nbsp; &amp;nbsp; &amp;nbsp; &amp;nbsp; &amp;nbsp; &amp;nbsp; &lt;/span&gt;&lt;span style=&quot;color: #f06e78;&quot;&gt;strokeDashoffset&lt;/span&gt;&lt;span style=&quot;color: #ffffff;&quot;&gt;: [&lt;/span&gt;&lt;span style=&quot;color: #5ff0dc;&quot;&gt;251.2&lt;/span&gt;&lt;span style=&quot;color: #ffffff;&quot;&gt;, &lt;/span&gt;&lt;span style=&quot;color: #5ff0dc;&quot;&gt;0&lt;/span&gt;&lt;span style=&quot;color: #ffffff;&quot;&gt;],&lt;/span&gt;&lt;/div&gt;&lt;div&gt;&lt;span style=&quot;color: #ffffff;&quot;&gt;&amp;nbsp; &amp;nbsp; &amp;nbsp; &amp;nbsp; &amp;nbsp; &amp;nbsp; &lt;/span&gt;&lt;span style=&quot;color: #f06e78;&quot;&gt;rotate&lt;/span&gt;&lt;span style=&quot;color: #ffffff;&quot;&gt;: [&lt;/span&gt;&lt;span style=&quot;color: #5ff0dc;&quot;&gt;0&lt;/span&gt;&lt;span style=&quot;color: #ffffff;&quot;&gt;, &lt;/span&gt;&lt;span style=&quot;color: #5ff0dc;&quot;&gt;360&lt;/span&gt;&lt;span style=&quot;color: #ffffff;&quot;&gt;]&lt;/span&gt;&lt;/div&gt;&lt;div&gt;&lt;span style=&quot;color: #ffffff;&quot;&gt;&amp;nbsp; &amp;nbsp; &amp;nbsp; &amp;nbsp; &amp;nbsp; }&lt;/span&gt;&lt;span style=&quot;color: #e281ff;&quot;&gt;}&lt;/span&gt;&lt;/div&gt;&lt;div&gt;&lt;span style=&quot;color: #ffffff;&quot;&gt;&amp;nbsp; &amp;nbsp; &amp;nbsp; &amp;nbsp; &amp;nbsp; &lt;/span&gt;&lt;span style=&quot;color: #5ff0dc;font-style: italic;&quot;&gt;transition&lt;/span&gt;&lt;span style=&quot;color: #0bb4f7;&quot;&gt;=&lt;/span&gt;&lt;span style=&quot;color: #e281ff;&quot;&gt;{&lt;/span&gt;&lt;span style=&quot;color: #ffffff;&quot;&gt;{&lt;/span&gt;&lt;/div&gt;&lt;div&gt;&lt;span style=&quot;color: #ffffff;&quot;&gt;&amp;nbsp; &amp;nbsp; &amp;nbsp; &amp;nbsp; &amp;nbsp; &amp;nbsp; &lt;/span&gt;&lt;span style=&quot;color: #f06e78;&quot;&gt;duration&lt;/span&gt;&lt;span style=&quot;color: #ffffff;&quot;&gt;: &lt;/span&gt;&lt;span style=&quot;color: #5ff0dc;&quot;&gt;3&lt;/span&gt;&lt;span style=&quot;color: #ffffff;&quot;&gt;,&lt;/span&gt;&lt;/div&gt;&lt;div&gt;&lt;span style=&quot;color: #ffffff;&quot;&gt;&amp;nbsp; &amp;nbsp; &amp;nbsp; &amp;nbsp; &amp;nbsp; &amp;nbsp; &lt;/span&gt;&lt;span style=&quot;color: #f06e78;&quot;&gt;ease&lt;/span&gt;&lt;span style=&quot;color: #ffffff;&quot;&gt;: &lt;/span&gt;&lt;span style=&quot;color: #00dbff;&quot;&gt;&quot;easeInOut&quot;&lt;/span&gt;&lt;span style=&quot;color: #ffffff;&quot;&gt;,&lt;/span&gt;&lt;/div&gt;&lt;div&gt;&lt;span style=&quot;color: #ffffff;&quot;&gt;&amp;nbsp; &amp;nbsp; &amp;nbsp; &amp;nbsp; &amp;nbsp; &amp;nbsp; &lt;/span&gt;&lt;span style=&quot;color: #f06e78;&quot;&gt;repeat&lt;/span&gt;&lt;span style=&quot;color: #ffffff;&quot;&gt;: &lt;/span&gt;&lt;span style=&quot;color: #5ff0dc;&quot;&gt;Infinity&lt;/span&gt;&lt;span style=&quot;color: #ffffff;&quot;&gt;,&lt;/span&gt;&lt;/div&gt;&lt;div&gt;&lt;span style=&quot;color: #ffffff;&quot;&gt;&amp;nbsp; &amp;nbsp; &amp;nbsp; &amp;nbsp; &amp;nbsp; &amp;nbsp; &lt;/span&gt;&lt;span style=&quot;color: #f06e78;&quot;&gt;repeatType&lt;/span&gt;&lt;span style=&quot;color: #ffffff;&quot;&gt;: &lt;/span&gt;&lt;span style=&quot;color: #00dbff;&quot;&gt;&quot;loop&quot;&lt;/span&gt;&lt;/div&gt;&lt;div&gt;&lt;span style=&quot;color: #ffffff;&quot;&gt;&amp;nbsp; &amp;nbsp; &amp;nbsp; &amp;nbsp; &amp;nbsp; }&lt;/span&gt;&lt;span style=&quot;color: #e281ff;&quot;&gt;}&lt;/span&gt;&lt;/div&gt;&lt;div&gt;&lt;span style=&quot;color: #ffffff;&quot;&gt;&amp;nbsp; &amp;nbsp; &amp;nbsp; &amp;nbsp; &amp;nbsp; &lt;/span&gt;&lt;span style=&quot;color: #5ff0dc;font-style: italic;&quot;&gt;style&lt;/span&gt;&lt;span style=&quot;color: #0bb4f7;&quot;&gt;=&lt;/span&gt;&lt;span style=&quot;color: #e281ff;&quot;&gt;{&lt;/span&gt;&lt;span style=&quot;color: #ffffff;&quot;&gt;{ &lt;/span&gt;&lt;span style=&quot;color: #f06e78;&quot;&gt;transformOrigin&lt;/span&gt;&lt;span style=&quot;color: #ffffff;&quot;&gt;: &lt;/span&gt;&lt;span style=&quot;color: #00dbff;&quot;&gt;&#39;center&#39;&lt;/span&gt;&lt;span style=&quot;color: #ffffff;&quot;&gt; }&lt;/span&gt;&lt;span style=&quot;color: #e281ff;&quot;&gt;}&lt;/span&gt;&lt;/div&gt;&lt;div&gt;&lt;span style=&quot;color: #ffffff;&quot;&gt;&amp;nbsp; &amp;nbsp; &amp;nbsp; &amp;nbsp; &lt;/span&gt;&lt;span style=&quot;color: #ffffff;&quot;&gt;/&amp;gt;&lt;/span&gt;&lt;/div&gt;&lt;br&gt;&lt;div&gt;&lt;span style=&quot;color: #ffffff;&quot;&gt;&amp;nbsp; &amp;nbsp; &amp;nbsp; &amp;nbsp; &lt;/span&gt;&lt;span style=&quot;color: #ffffff;&quot;&gt;&amp;lt;&lt;/span&gt;&lt;span style=&quot;color: #01ffa0;&quot;&gt;motion.circle&lt;/span&gt;&lt;/div&gt;&lt;div&gt;&lt;span style=&quot;color: #ffffff;&quot;&gt;&amp;nbsp; &amp;nbsp; &amp;nbsp; &amp;nbsp; &amp;nbsp; &lt;/span&gt;&lt;span style=&quot;color: #5ff0dc;font-style: italic;&quot;&gt;cx&lt;/span&gt;&lt;span style=&quot;color: #0bb4f7;&quot;&gt;=&lt;/span&gt;&lt;span style=&quot;color: #00dbff;&quot;&gt;&quot;50&quot;&lt;/span&gt;&lt;/div&gt;&lt;div&gt;&lt;span style=&quot;color: #ffffff;&quot;&gt;&amp;nbsp; &amp;nbsp; &amp;nbsp; &amp;nbsp; &amp;nbsp; &lt;/span&gt;&lt;span style=&quot;color: #5ff0dc;font-style: italic;&quot;&gt;cy&lt;/span&gt;&lt;span style=&quot;color: #0bb4f7;&quot;&gt;=&lt;/span&gt;&lt;span style=&quot;color: #00dbff;&quot;&gt;&quot;50&quot;&lt;/span&gt;&lt;/div&gt;&lt;div&gt;&lt;span style=&quot;color: #ffffff;&quot;&gt;&amp;nbsp; &amp;nbsp; &amp;nbsp; &amp;nbsp; &amp;nbsp; &lt;/span&gt;&lt;span style=&quot;color: #5ff0dc;font-style: italic;&quot;&gt;r&lt;/span&gt;&lt;span style=&quot;color: #0bb4f7;&quot;&gt;=&lt;/span&gt;&lt;span style=&quot;color: #00dbff;&quot;&gt;&quot;40&quot;&lt;/span&gt;&lt;/div&gt;&lt;div&gt;&lt;span style=&quot;color: #ffffff;&quot;&gt;&amp;nbsp; &amp;nbsp; &amp;nbsp; &amp;nbsp; &amp;nbsp; &lt;/span&gt;&lt;span style=&quot;color: #5ff0dc;font-style: italic;&quot;&gt;fill&lt;/span&gt;&lt;span style=&quot;color: #0bb4f7;&quot;&gt;=&lt;/span&gt;&lt;span style=&quot;color: #00dbff;&quot;&gt;&quot;transparent&quot;&lt;/span&gt;&lt;/div&gt;&lt;div&gt;&lt;span style=&quot;color: #ffffff;&quot;&gt;&amp;nbsp; &amp;nbsp; &amp;nbsp; &amp;nbsp; &amp;nbsp; &lt;/span&gt;&lt;span style=&quot;color: #5ff0dc;font-style: italic;&quot;&gt;stroke&lt;/span&gt;&lt;span style=&quot;color: #0bb4f7;&quot;&gt;=&lt;/span&gt;&lt;span style=&quot;color: #00dbff;&quot;&gt;&quot;hsl(var(--primary-foreground))&quot;&lt;/span&gt;&lt;/div&gt;&lt;div&gt;&lt;span style=&quot;color: #ffffff;&quot;&gt;&amp;nbsp; &amp;nbsp; &amp;nbsp; &amp;nbsp; &amp;nbsp; &lt;/span&gt;&lt;span style=&quot;color: #5ff0dc;font-style: italic;&quot;&gt;strokeWidth&lt;/span&gt;&lt;span style=&quot;color: #0bb4f7;&quot;&gt;=&lt;/span&gt;&lt;span style=&quot;color: #00dbff;&quot;&gt;&quot;15&quot;&lt;/span&gt;&lt;/div&gt;&lt;div&gt;&lt;span style=&quot;color: #ffffff;&quot;&gt;&amp;nbsp; &amp;nbsp; &amp;nbsp; &amp;nbsp; &amp;nbsp; &lt;/span&gt;&lt;span style=&quot;color: #5ff0dc;font-style: italic;&quot;&gt;strokeDasharray&lt;/span&gt;&lt;span style=&quot;color: #0bb4f7;&quot;&gt;=&lt;/span&gt;&lt;span style=&quot;color: #00dbff;&quot;&gt;&quot;251.2&quot;&lt;/span&gt;&lt;/div&gt;&lt;div&gt;&lt;span style=&quot;color: #ffffff;&quot;&gt;&amp;nbsp; &amp;nbsp; &amp;nbsp; &amp;nbsp; &amp;nbsp; &lt;/span&gt;&lt;span style=&quot;color: #5ff0dc;font-style: italic;&quot;&gt;strokeDashoffset&lt;/span&gt;&lt;span style=&quot;color: #0bb4f7;&quot;&gt;=&lt;/span&gt;&lt;span style=&quot;color: #00dbff;&quot;&gt;&quot;188.4&quot;&lt;/span&gt;&lt;span style=&quot;color: #ffffff;&quot;&gt; &lt;/span&gt;&lt;span style=&quot;color: #8a8a8a;font-style: italic;&quot;&gt;// 75% de 251.2&lt;/span&gt;&lt;/div&gt;&lt;div&gt;&lt;span style=&quot;color: #ffffff;&quot;&gt;&amp;nbsp; &amp;nbsp; &amp;nbsp; &amp;nbsp; &amp;nbsp; &lt;/span&gt;&lt;span style=&quot;color: #5ff0dc;font-style: italic;&quot;&gt;strokeLinecap&lt;/span&gt;&lt;span style=&quot;color: #0bb4f7;&quot;&gt;=&lt;/span&gt;&lt;span style=&quot;color: #00dbff;&quot;&gt;&quot;round&quot;&lt;/span&gt;&lt;/div&gt;&lt;div&gt;&lt;span style=&quot;color: #ffffff;&quot;&gt;&amp;nbsp; &amp;nbsp; &amp;nbsp; &amp;nbsp; &amp;nbsp; &lt;/span&gt;&lt;span style=&quot;color: #5ff0dc;font-style: italic;&quot;&gt;animate&lt;/span&gt;&lt;span style=&quot;color: #0bb4f7;&quot;&gt;=&lt;/span&gt;&lt;span style=&quot;color: #e281ff;&quot;&gt;{&lt;/span&gt;&lt;span style=&quot;color: #ffffff;&quot;&gt;{&lt;/span&gt;&lt;/div&gt;&lt;div&gt;&lt;span style=&quot;color: #ffffff;&quot;&gt;&amp;nbsp; &amp;nbsp; &amp;nbsp; &amp;nbsp; &amp;nbsp; &amp;nbsp; &lt;/span&gt;&lt;span style=&quot;color: #f06e78;&quot;&gt;rotate&lt;/span&gt;&lt;span style=&quot;color: #ffffff;&quot;&gt;: [&lt;/span&gt;&lt;span style=&quot;color: #5ff0dc;&quot;&gt;0&lt;/span&gt;&lt;span style=&quot;color: #ffffff;&quot;&gt;, &lt;/span&gt;&lt;span style=&quot;color: #0bb4f7;&quot;&gt;-&lt;/span&gt;&lt;span style=&quot;color: #5ff0dc;&quot;&gt;360&lt;/span&gt;&lt;span style=&quot;color: #ffffff;&quot;&gt;]&lt;/span&gt;&lt;/div&gt;&lt;div&gt;&lt;span style=&quot;color: #ffffff;&quot;&gt;&amp;nbsp; &amp;nbsp; &amp;nbsp; &amp;nbsp; &amp;nbsp; }&lt;/span&gt;&lt;span style=&quot;color: #e281ff;&quot;&gt;}&lt;/span&gt;&lt;/div&gt;&lt;div&gt;&lt;span style=&quot;color: #ffffff;&quot;&gt;&amp;nbsp; &amp;nbsp; &amp;nbsp; &amp;nbsp; &amp;nbsp; &lt;/span&gt;&lt;span style=&quot;color: #5ff0dc;font-style: italic;&quot;&gt;transition&lt;/span&gt;&lt;span style=&quot;color: #0bb4f7;&quot;&gt;=&lt;/span&gt;&lt;span style=&quot;color: #e281ff;&quot;&gt;{&lt;/span&gt;&lt;span style=&quot;color: #ffffff;&quot;&gt;{&lt;/span&gt;&lt;/div&gt;&lt;div&gt;&lt;span style=&quot;color: #ffffff;&quot;&gt;&amp;nbsp; &amp;nbsp; &amp;nbsp; &amp;nbsp; &amp;nbsp; &amp;nbsp; &lt;/span&gt;&lt;span style=&quot;color: #f06e78;&quot;&gt;duration&lt;/span&gt;&lt;span style=&quot;color: #ffffff;&quot;&gt;: &lt;/span&gt;&lt;span style=&quot;color: #5ff0dc;&quot;&gt;5&lt;/span&gt;&lt;span style=&quot;color: #ffffff;&quot;&gt;,&lt;/span&gt;&lt;/div&gt;&lt;div&gt;&lt;span style=&quot;color: #ffffff;&quot;&gt;&amp;nbsp; &amp;nbsp; &amp;nbsp; &amp;nbsp; &amp;nbsp; &amp;nbsp; &lt;/span&gt;&lt;span style=&quot;color: #f06e78;&quot;&gt;ease&lt;/span&gt;&lt;span style=&quot;color: #ffffff;&quot;&gt;: &lt;/span&gt;&lt;span style=&quot;color: #00dbff;&quot;&gt;&quot;easeInOut&quot;&lt;/span&gt;&lt;span style=&quot;color: #ffffff;&quot;&gt;,&lt;/span&gt;&lt;/div&gt;&lt;div&gt;&lt;span style=&quot;color: #ffffff;&quot;&gt;&amp;nbsp; &amp;nbsp; &amp;nbsp; &amp;nbsp; &amp;nbsp; &amp;nbsp; &lt;/span&gt;&lt;span style=&quot;color: #f06e78;&quot;&gt;repeat&lt;/span&gt;&lt;span style=&quot;color: #ffffff;&quot;&gt;: &lt;/span&gt;&lt;span style=&quot;color: #5ff0dc;&quot;&gt;Infinity&lt;/span&gt;&lt;span style=&quot;color: #ffffff;&quot;&gt;,&lt;/span&gt;&lt;/div&gt;&lt;div&gt;&lt;span style=&quot;color: #ffffff;&quot;&gt;&amp;nbsp; &amp;nbsp; &amp;nbsp; &amp;nbsp; &amp;nbsp; &amp;nbsp; &lt;/span&gt;&lt;span style=&quot;color: #f06e78;&quot;&gt;repeatType&lt;/span&gt;&lt;span style=&quot;color: #ffffff;&quot;&gt;: &lt;/span&gt;&lt;span style=&quot;color: #00dbff;&quot;&gt;&quot;loop&quot;&lt;/span&gt;&lt;/div&gt;&lt;div&gt;&lt;span style=&quot;color: #ffffff;&quot;&gt;&amp;nbsp; &amp;nbsp; &amp;nbsp; &amp;nbsp; &amp;nbsp; }&lt;/span&gt;&lt;span style=&quot;color: #e281ff;&quot;&gt;}&lt;/span&gt;&lt;/div&gt;&lt;div&gt;&lt;span style=&quot;color: #ffffff;&quot;&gt;&amp;nbsp; &amp;nbsp; &amp;nbsp; &amp;nbsp; &amp;nbsp; &lt;/span&gt;&lt;span style=&quot;color: #5ff0dc;font-style: italic;&quot;&gt;style&lt;/span&gt;&lt;span style=&quot;color: #0bb4f7;&quot;&gt;=&lt;/span&gt;&lt;span style=&quot;color: #e281ff;&quot;&gt;{&lt;/span&gt;&lt;span style=&quot;color: #ffffff;&quot;&gt;{ &lt;/span&gt;&lt;span style=&quot;color: #f06e78;&quot;&gt;transformOrigin&lt;/span&gt;&lt;span style=&quot;color: #ffffff;&quot;&gt;: &lt;/span&gt;&lt;span style=&quot;color: #00dbff;&quot;&gt;&#39;center&#39;&lt;/span&gt;&lt;span style=&quot;color: #ffffff;&quot;&gt; }&lt;/span&gt;&lt;span style=&quot;color: #e281ff;&quot;&gt;}&lt;/span&gt;&lt;/div&gt;&lt;div&gt;&lt;span style=&quot;color: #ffffff;&quot;&gt;&amp;nbsp; &amp;nbsp; &amp;nbsp; &amp;nbsp; &lt;/span&gt;&lt;span style=&quot;color: #ffffff;&quot;&gt;/&amp;gt;&lt;/span&gt;&lt;/div&gt;&lt;div&gt;&lt;span style=&quot;color: #ffffff;&quot;&gt;&amp;nbsp; &amp;nbsp; &amp;nbsp; &lt;/span&gt;&lt;span style=&quot;color: #ffffff;&quot;&gt;&amp;lt;/&lt;/span&gt;&lt;span style=&quot;color: #f06e78;&quot;&gt;svg&lt;/span&gt;&lt;span style=&quot;color: #ffffff;&quot;&gt;&amp;gt;&lt;/span&gt;&lt;/div&gt;&lt;br&gt;&lt;div&gt;&lt;span style=&quot;color: #ffffff;&quot;&gt;&amp;nbsp; &amp;nbsp; &amp;nbsp; &lt;/span&gt;&lt;span style=&quot;color: #e281ff;&quot;&gt;{&lt;/span&gt;&lt;span style=&quot;color: #8a8a8a;font-style: italic;&quot;&gt;/* Texto de percentual no centro */&lt;/span&gt;&lt;span style=&quot;color: #e281ff;&quot;&gt;}&lt;/span&gt;&lt;/div&gt;&lt;div&gt;&lt;span style=&quot;color: #ffffff;&quot;&gt;&amp;nbsp; &amp;nbsp; &amp;nbsp; &lt;/span&gt;&lt;span style=&quot;color: #ffffff;&quot;&gt;&amp;lt;&lt;/span&gt;&lt;span style=&quot;color: #01ffa0;&quot;&gt;motion.div&lt;/span&gt;&lt;/div&gt;&lt;div&gt;&lt;span style=&quot;color: #ffffff;&quot;&gt;&amp;nbsp; &amp;nbsp; &amp;nbsp; &amp;nbsp; &lt;/span&gt;&lt;span style=&quot;color: #5ff0dc;font-style: italic;&quot;&gt;className&lt;/span&gt;&lt;span style=&quot;color: #0bb4f7;&quot;&gt;=&lt;/span&gt;&lt;span style=&quot;color: #00dbff;&quot;&gt;&quot;absolute text-xl font-bold text-primary&quot;&lt;/span&gt;&lt;/div&gt;&lt;div&gt;&lt;span style=&quot;color: #ffffff;&quot;&gt;&amp;nbsp; &amp;nbsp; &amp;nbsp; &amp;nbsp; &lt;/span&gt;&lt;span style=&quot;color: #5ff0dc;font-style: italic;&quot;&gt;animate&lt;/span&gt;&lt;span style=&quot;color: #0bb4f7;&quot;&gt;=&lt;/span&gt;&lt;span style=&quot;color: #e281ff;&quot;&gt;{&lt;/span&gt;&lt;span style=&quot;color: #ffffff;&quot;&gt;{ &lt;/span&gt;&lt;span style=&quot;color: #f06e78;&quot;&gt;opacity&lt;/span&gt;&lt;span style=&quot;color: #ffffff;&quot;&gt;: [&lt;/span&gt;&lt;span style=&quot;color: #5ff0dc;&quot;&gt;0.5&lt;/span&gt;&lt;span style=&quot;color: #ffffff;&quot;&gt;, &lt;/span&gt;&lt;span style=&quot;color: #5ff0dc;&quot;&gt;1&lt;/span&gt;&lt;span style=&quot;color: #ffffff;&quot;&gt;, &lt;/span&gt;&lt;span style=&quot;color: #5ff0dc;&quot;&gt;0.5&lt;/span&gt;&lt;span style=&quot;color: #ffffff;&quot;&gt;] }&lt;/span&gt;&lt;span style=&quot;color: #e281ff;&quot;&gt;}&lt;/span&gt;&lt;/div&gt;&lt;div&gt;&lt;span style=&quot;color: #ffffff;&quot;&gt;&amp;nbsp; &amp;nbsp; &amp;nbsp; &amp;nbsp; &lt;/span&gt;&lt;span style=&quot;color: #5ff0dc;font-style: italic;&quot;&gt;transition&lt;/span&gt;&lt;span style=&quot;color: #0bb4f7;&quot;&gt;=&lt;/span&gt;&lt;span style=&quot;color: #e281ff;&quot;&gt;{&lt;/span&gt;&lt;span style=&quot;color: #ffffff;&quot;&gt;{ &lt;/span&gt;&lt;span style=&quot;color: #f06e78;&quot;&gt;duration&lt;/span&gt;&lt;span style=&quot;color: #ffffff;&quot;&gt;: &lt;/span&gt;&lt;span style=&quot;color: #5ff0dc;&quot;&gt;2&lt;/span&gt;&lt;span style=&quot;color: #ffffff;&quot;&gt;, &lt;/span&gt;&lt;span style=&quot;color: #f06e78;&quot;&gt;repeat&lt;/span&gt;&lt;span style=&quot;color: #ffffff;&quot;&gt;: &lt;/span&gt;&lt;span style=&quot;color: #5ff0dc;&quot;&gt;Infinity&lt;/span&gt;&lt;span style=&quot;color: #ffffff;&quot;&gt;, &lt;/span&gt;&lt;span style=&quot;color: #f06e78;&quot;&gt;ease&lt;/span&gt;&lt;span style=&quot;color: #ffffff;&quot;&gt;: &lt;/span&gt;&lt;span style=&quot;color: #00dbff;&quot;&gt;&quot;easeInOut&quot;&lt;/span&gt;&lt;span style=&quot;color: #ffffff;&quot;&gt; }&lt;/span&gt;&lt;span style=&quot;color: #e281ff;&quot;&gt;}&lt;/span&gt;&lt;/div&gt;&lt;div&gt;&lt;span style=&quot;color: #ffffff;&quot;&gt;&amp;nbsp; &amp;nbsp; &amp;nbsp; &lt;/span&gt;&lt;span style=&quot;color: #ffffff;&quot;&gt;&amp;gt;&lt;/span&gt;&lt;/div&gt;&lt;div&gt;&lt;span style=&quot;color: #ffffff;&quot;&gt;&amp;nbsp; &amp;nbsp; &amp;nbsp; &amp;nbsp; 75%&lt;/span&gt;&lt;/div&gt;&lt;div&gt;&lt;span style=&quot;color: #ffffff;&quot;&gt;&amp;nbsp; &amp;nbsp; &amp;nbsp; &lt;/span&gt;&lt;span style=&quot;color: #ffffff;&quot;&gt;&amp;lt;/&lt;/span&gt;&lt;span style=&quot;color: #01ffa0;&quot;&gt;motion.div&lt;/span&gt;&lt;span style=&quot;color: #ffffff;&quot;&gt;&amp;gt;&lt;/span&gt;&lt;/div&gt;&lt;div&gt;&lt;span style=&quot;color: #ffffff;&quot;&gt;&amp;nbsp; &amp;nbsp; &lt;/span&gt;&lt;span style=&quot;color: #ffffff;&quot;&gt;&amp;lt;/&lt;/span&gt;&lt;span style=&quot;color: #f06e78;&quot;&gt;div&lt;/span&gt;&lt;span style=&quot;color: #ffffff;&quot;&gt;&amp;gt;&lt;/span&gt;&lt;/div&gt;&lt;div&gt;&lt;span style=&quot;color: #ffffff;&quot;&gt;&amp;nbsp; );&lt;/span&gt;&lt;/div&gt;&lt;div&gt;&lt;span style=&quot;color: #ffffff;&quot;&gt;};&lt;/span&gt;&lt;/div&gt;&lt;br&gt;&lt;div&gt;&lt;span style=&quot;color: #e281ff;&quot;&gt;export&lt;/span&gt;&lt;span style=&quot;color: #ffffff;&quot;&gt; &lt;/span&gt;&lt;span style=&quot;color: #e281ff;&quot;&gt;default&lt;/span&gt;&lt;span style=&quot;color: #ffffff;&quot;&gt; &lt;/span&gt;&lt;span style=&quot;color: #01ffa0;&quot;&gt;Preload&lt;/span&gt;&lt;span style=&quot;color: #ffffff;&quot;&gt;;&lt;/span&gt;&lt;/div&gt;&lt;/div&gt;" style="rounded=0;whiteSpace=wrap;html=1;align=left;" vertex="1" parent="1">
                    <mxGeometry x="-380" y="10" width="1030" height="3460" as="geometry"/>
                </mxCell>
                <mxCell id="3" value="&lt;div style=&quot;color: rgb(255, 255, 255); background-color: rgb(20, 16, 38); font-family: Consolas, &amp;quot;Courier New&amp;quot;, monospace; font-size: 14px; line-height: 19px; white-space: pre;&quot;&gt;&lt;span style=&quot;color: #e281ff;&quot;&gt;import&lt;/span&gt;&lt;span style=&quot;color: #ffffff;&quot;&gt; &lt;/span&gt;&lt;span style=&quot;color: #f06e78;&quot;&gt;Preload&lt;/span&gt;&lt;span style=&quot;color: #ffffff;&quot;&gt; &lt;/span&gt;&lt;span style=&quot;color: #e281ff;&quot;&gt;from&lt;/span&gt;&lt;span style=&quot;color: #ffffff;&quot;&gt; &lt;/span&gt;&lt;span style=&quot;color: #00dbff;&quot;&gt;&quot;@/components/ui/preload&quot;&lt;/span&gt;&lt;span style=&quot;color: #ffffff;&quot;&gt;;&lt;/span&gt;&lt;/div&gt;" style="rounded=0;whiteSpace=wrap;html=1;align=left;" vertex="1" parent="1">
                    <mxGeometry x="750" y="10" width="360" height="20" as="geometry"/>
                </mxCell>
                <mxCell id="4" value="&lt;div style=&quot;color: rgb(255, 255, 255); background-color: rgb(20, 16, 38); font-family: Consolas, &amp;quot;Courier New&amp;quot;, monospace; font-size: 14px; line-height: 19px; white-space: pre;&quot;&gt;&lt;div style=&quot;color: rgb(255, 255, 255); line-height: 19px;&quot;&gt;&lt;div&gt;&lt;span style=&quot;color: #e281ff;&quot;&gt;const&lt;/span&gt;&lt;span style=&quot;color: #ffffff;&quot;&gt; [&lt;/span&gt;&lt;span style=&quot;color: #01ffa0;&quot;&gt;isLoading&lt;/span&gt;&lt;span style=&quot;color: #ffffff;&quot;&gt;, &lt;/span&gt;&lt;span style=&quot;color: #42aaff;&quot;&gt;setIsLoading&lt;/span&gt;&lt;span style=&quot;color: #ffffff;&quot;&gt;] &lt;/span&gt;&lt;span style=&quot;color: #0bb4f7;&quot;&gt;=&lt;/span&gt;&lt;span style=&quot;color: #ffffff;&quot;&gt; &lt;/span&gt;&lt;span style=&quot;color: #01ffa0;&quot;&gt;React&lt;/span&gt;&lt;span style=&quot;color: #ffffff;&quot;&gt;.&lt;/span&gt;&lt;span style=&quot;color: #42aaff;&quot;&gt;useState&lt;/span&gt;&lt;span style=&quot;color: #ffffff;&quot;&gt;(&lt;/span&gt;&lt;span style=&quot;color: #5ff0dc;&quot;&gt;true&lt;/span&gt;&lt;span style=&quot;color: #ffffff;&quot;&gt;);&lt;/span&gt;&lt;/div&gt;&lt;br&gt;&lt;div&gt;&lt;span style=&quot;color: #ffffff;&quot;&gt;&amp;nbsp; &lt;/span&gt;&lt;span style=&quot;color: #8a8a8a;font-style: italic;&quot;&gt;// Simulando um carregamento&lt;/span&gt;&lt;/div&gt;&lt;div&gt;&lt;span style=&quot;color: #ffffff;&quot;&gt;&amp;nbsp; &lt;/span&gt;&lt;span style=&quot;color: #01ffa0;&quot;&gt;React&lt;/span&gt;&lt;span style=&quot;color: #ffffff;&quot;&gt;.&lt;/span&gt;&lt;span style=&quot;color: #42aaff;&quot;&gt;useEffect&lt;/span&gt;&lt;span style=&quot;color: #ffffff;&quot;&gt;(() &lt;/span&gt;&lt;span style=&quot;color: #e281ff;&quot;&gt;=&amp;gt;&lt;/span&gt;&lt;span style=&quot;color: #ffffff;&quot;&gt; {&lt;/span&gt;&lt;/div&gt;&lt;div&gt;&lt;span style=&quot;color: #ffffff;&quot;&gt;&amp;nbsp; &amp;nbsp; &lt;/span&gt;&lt;span style=&quot;color: #e281ff;&quot;&gt;const&lt;/span&gt;&lt;span style=&quot;color: #ffffff;&quot;&gt; &lt;/span&gt;&lt;span style=&quot;color: #01ffa0;&quot;&gt;timer&lt;/span&gt;&lt;span style=&quot;color: #ffffff;&quot;&gt; &lt;/span&gt;&lt;span style=&quot;color: #0bb4f7;&quot;&gt;=&lt;/span&gt;&lt;span style=&quot;color: #ffffff;&quot;&gt; &lt;/span&gt;&lt;span style=&quot;color: #0bb4f7;&quot;&gt;setTimeout&lt;/span&gt;&lt;span style=&quot;color: #ffffff;&quot;&gt;(() &lt;/span&gt;&lt;span style=&quot;color: #e281ff;&quot;&gt;=&amp;gt;&lt;/span&gt;&lt;span style=&quot;color: #ffffff;&quot;&gt; &lt;/span&gt;&lt;span style=&quot;color: #42aaff;&quot;&gt;setIsLoading&lt;/span&gt;&lt;span style=&quot;color: #ffffff;&quot;&gt;(&lt;/span&gt;&lt;span style=&quot;color: #5ff0dc;&quot;&gt;false&lt;/span&gt;&lt;span style=&quot;color: #ffffff;&quot;&gt;), &lt;/span&gt;&lt;span style=&quot;color: #5ff0dc;&quot;&gt;3000&lt;/span&gt;&lt;span style=&quot;color: #ffffff;&quot;&gt;);&lt;/span&gt;&lt;/div&gt;&lt;div&gt;&lt;span style=&quot;color: #ffffff;&quot;&gt;&amp;nbsp; &amp;nbsp; &lt;/span&gt;&lt;span style=&quot;color: #e281ff;&quot;&gt;return&lt;/span&gt;&lt;span style=&quot;color: #ffffff;&quot;&gt; () &lt;/span&gt;&lt;span style=&quot;color: #e281ff;&quot;&gt;=&amp;gt;&lt;/span&gt;&lt;span style=&quot;color: #ffffff;&quot;&gt; &lt;/span&gt;&lt;span style=&quot;color: #0bb4f7;&quot;&gt;clearTimeout&lt;/span&gt;&lt;span style=&quot;color: #ffffff;&quot;&gt;(&lt;/span&gt;&lt;span style=&quot;color: #01ffa0;&quot;&gt;timer&lt;/span&gt;&lt;span style=&quot;color: #ffffff;&quot;&gt;);&lt;/span&gt;&lt;/div&gt;&lt;div&gt;&lt;span style=&quot;color: #ffffff;&quot;&gt;&amp;nbsp; }, []);&lt;/span&gt;&lt;/div&gt;&lt;/div&gt;&lt;/div&gt;" style="rounded=0;whiteSpace=wrap;html=1;align=left;" vertex="1" parent="1">
                    <mxGeometry x="750" y="460" width="480" height="130" as="geometry"/>
                </mxCell>
                <mxCell id="5" value="&lt;div style=&quot;color: rgb(255, 255, 255); background-color: rgb(20, 16, 38); font-family: Consolas, &amp;quot;Courier New&amp;quot;, monospace; font-size: 14px; line-height: 19px; white-space: pre;&quot;&gt;&lt;div style=&quot;color: rgb(255, 255, 255); line-height: 19px;&quot;&gt;&lt;span style=&quot;color: #ffffff;&quot;&gt;&amp;lt;&lt;/span&gt;&lt;span style=&quot;color: #01ffa0;&quot;&gt;Preload&lt;/span&gt;&lt;span style=&quot;color: #ffffff;&quot;&gt; &lt;/span&gt;&lt;span style=&quot;color: #5ff0dc;font-style: italic;&quot;&gt;isLoading&lt;/span&gt;&lt;span style=&quot;color: #0bb4f7;&quot;&gt;=&lt;/span&gt;&lt;span style=&quot;color: #e281ff;&quot;&gt;{&lt;/span&gt;&lt;span style=&quot;color: #5ff0dc;&quot;&gt;true&lt;/span&gt;&lt;span style=&quot;color: #e281ff;&quot;&gt;}&lt;/span&gt;&lt;span style=&quot;color: #ffffff;&quot;&gt; &lt;/span&gt;&lt;span style=&quot;color: #5ff0dc;font-style: italic;&quot;&gt;loadingText&lt;/span&gt;&lt;span style=&quot;color: #0bb4f7;&quot;&gt;=&lt;/span&gt;&lt;span style=&quot;color: #00dbff;&quot;&gt;&quot;Carregando logs...&quot;&lt;/span&gt;&lt;span style=&quot;color: #ffffff;&quot;&gt; &lt;/span&gt;&lt;span style=&quot;color: #ffffff;&quot;&gt;/&amp;gt;&lt;/span&gt;&lt;/div&gt;&lt;/div&gt;" style="rounded=0;whiteSpace=wrap;html=1;align=left;" vertex="1" parent="1">
                    <mxGeometry x="750" y="610" width="480" height="20" as="geometry"/>
                </mxCell>
                <mxCell id="6" value="&lt;div style=&quot;color: rgb(255, 255, 255); background-color: rgb(20, 16, 38); font-family: Consolas, &amp;quot;Courier New&amp;quot;, monospace; font-size: 14px; line-height: 19px; white-space: pre;&quot;&gt;&lt;div style=&quot;color: rgb(255, 255, 255); line-height: 19px;&quot;&gt;&lt;div&gt;&lt;/div&gt;&lt;div&gt;&lt;span style=&quot;color: #ffffff;&quot;&gt;&amp;nbsp; &lt;/span&gt;&lt;span style=&quot;color: #e281ff;&quot;&gt;const&lt;/span&gt;&lt;span style=&quot;color: #ffffff;&quot;&gt; [&lt;/span&gt;&lt;span style=&quot;color: #01ffa0;&quot;&gt;loading&lt;/span&gt;&lt;span style=&quot;color: #ffffff;&quot;&gt;, &lt;/span&gt;&lt;span style=&quot;color: #42aaff;&quot;&gt;setLoading&lt;/span&gt;&lt;span style=&quot;color: #ffffff;&quot;&gt;] &lt;/span&gt;&lt;span style=&quot;color: #0bb4f7;&quot;&gt;=&lt;/span&gt;&lt;span style=&quot;color: #ffffff;&quot;&gt; &lt;/span&gt;&lt;span style=&quot;color: #42aaff;&quot;&gt;useState&lt;/span&gt;&lt;span style=&quot;color: #ffffff;&quot;&gt;(&lt;/span&gt;&lt;span style=&quot;color: #5ff0dc;&quot;&gt;true&lt;/span&gt;&lt;span style=&quot;color: #ffffff;&quot;&gt;);&lt;/span&gt;&lt;/div&gt;&lt;/div&gt;&lt;/div&gt;" style="rounded=0;whiteSpace=wrap;html=1;align=left;" vertex="1" parent="1">
                    <mxGeometry x="750" y="70" width="360" height="20" as="geometry"/>
                </mxCell>
                <mxCell id="7" value="&lt;div style=&quot;color: rgb(255, 255, 255); background-color: rgb(20, 16, 38); font-family: Consolas, &amp;quot;Courier New&amp;quot;, monospace; font-size: 14px; line-height: 19px; white-space: pre;&quot;&gt;&lt;div style=&quot;color: rgb(255, 255, 255); line-height: 19px;&quot;&gt;&lt;div style=&quot;color: rgb(255, 255, 255); line-height: 19px;&quot;&gt;&lt;div&gt;&lt;span style=&quot;color: #8a8a8a;font-style: italic;&quot;&gt;// Buscar dados ao carregar o componente&lt;/span&gt;&lt;/div&gt;&lt;div&gt;&lt;span style=&quot;color: #42aaff;&quot;&gt;useEffect&lt;/span&gt;&lt;span style=&quot;color: #ffffff;&quot;&gt;(() &lt;/span&gt;&lt;span style=&quot;color: #e281ff;&quot;&gt;=&amp;gt;&lt;/span&gt;&lt;span style=&quot;color: #ffffff;&quot;&gt; {&lt;/span&gt;&lt;/div&gt;&lt;div&gt;&lt;span style=&quot;color: #ffffff;&quot;&gt;&amp;nbsp; &lt;/span&gt;&lt;span style=&quot;color: #e281ff;&quot;&gt;const&lt;/span&gt;&lt;span style=&quot;color: #ffffff;&quot;&gt; &lt;/span&gt;&lt;span style=&quot;color: #42aaff;&quot;&gt;fetchData&lt;/span&gt;&lt;span style=&quot;color: #ffffff;&quot;&gt; &lt;/span&gt;&lt;span style=&quot;color: #0bb4f7;&quot;&gt;=&lt;/span&gt;&lt;span style=&quot;color: #ffffff;&quot;&gt; &lt;/span&gt;&lt;span style=&quot;color: #e281ff;&quot;&gt;async&lt;/span&gt;&lt;span style=&quot;color: #ffffff;&quot;&gt; () &lt;/span&gt;&lt;span style=&quot;color: #e281ff;&quot;&gt;=&amp;gt;&lt;/span&gt;&lt;span style=&quot;color: #ffffff;&quot;&gt; {&lt;/span&gt;&lt;/div&gt;&lt;div&gt;&lt;span style=&quot;color: #ffffff;&quot;&gt;&amp;nbsp; &amp;nbsp; &lt;/span&gt;&lt;span style=&quot;color: #e281ff;&quot;&gt;try&lt;/span&gt;&lt;span style=&quot;color: #ffffff;&quot;&gt; {&lt;/span&gt;&lt;/div&gt;&lt;br&gt;&lt;div&gt;&lt;span style=&quot;color: #ffffff;&quot;&gt;&amp;nbsp; &amp;nbsp; } &lt;/span&gt;&lt;span style=&quot;color: #e281ff;&quot;&gt;catch&lt;/span&gt;&lt;span style=&quot;color: #ffffff;&quot;&gt; (&lt;/span&gt;&lt;span style=&quot;color: #f06e78;&quot;&gt;error&lt;/span&gt;&lt;span style=&quot;color: #ffffff;&quot;&gt;) {&lt;/span&gt;&lt;/div&gt;&lt;div&gt;&lt;span style=&quot;color: #ffffff;&quot;&gt;&amp;nbsp; &amp;nbsp; &amp;nbsp; &lt;/span&gt;&lt;span style=&quot;color: #01ffa0;&quot;&gt;console&lt;/span&gt;&lt;span style=&quot;color: #ffffff;&quot;&gt;.&lt;/span&gt;&lt;span style=&quot;color: #42aaff;&quot;&gt;error&lt;/span&gt;&lt;span style=&quot;color: #ffffff;&quot;&gt;(&lt;/span&gt;&lt;span style=&quot;color: #00dbff;&quot;&gt;&#39;Erro ao buscar dados:&#39;&lt;/span&gt;&lt;span style=&quot;color: #ffffff;&quot;&gt;, &lt;/span&gt;&lt;span style=&quot;color: #f06e78;&quot;&gt;error&lt;/span&gt;&lt;span style=&quot;color: #ffffff;&quot;&gt;);&lt;/span&gt;&lt;/div&gt;&lt;div&gt;&lt;span style=&quot;color: #ffffff;&quot;&gt;&amp;nbsp; &amp;nbsp; } &lt;/span&gt;&lt;span style=&quot;color: #e281ff;&quot;&gt;finally&lt;/span&gt;&lt;span style=&quot;color: #ffffff;&quot;&gt; {&lt;/span&gt;&lt;/div&gt;&lt;div&gt;&lt;span style=&quot;color: #ffffff;&quot;&gt;&amp;nbsp; &amp;nbsp; &amp;nbsp; &lt;/span&gt;&lt;span style=&quot;color: #42aaff;&quot;&gt;setLoading&lt;/span&gt;&lt;span style=&quot;color: #ffffff;&quot;&gt;(&lt;/span&gt;&lt;span style=&quot;color: #5ff0dc;&quot;&gt;false&lt;/span&gt;&lt;span style=&quot;color: #ffffff;&quot;&gt;);&lt;/span&gt;&lt;/div&gt;&lt;div&gt;&lt;span style=&quot;color: #ffffff;&quot;&gt;&amp;nbsp; &amp;nbsp; }&lt;/span&gt;&lt;/div&gt;&lt;div&gt;&lt;span style=&quot;color: #ffffff;&quot;&gt;&amp;nbsp; };&lt;/span&gt;&lt;/div&gt;&lt;br&gt;&lt;div&gt;&lt;span style=&quot;color: #ffffff;&quot;&gt;&amp;nbsp; &lt;/span&gt;&lt;span style=&quot;color: #42aaff;&quot;&gt;fetchData&lt;/span&gt;&lt;span style=&quot;color: #ffffff;&quot;&gt;();&lt;/span&gt;&lt;/div&gt;&lt;div&gt;&lt;span style=&quot;color: #ffffff;&quot;&gt;}, []);&lt;/span&gt;&lt;/div&gt;&lt;/div&gt;&lt;/div&gt;&lt;/div&gt;" style="rounded=0;whiteSpace=wrap;html=1;align=left;" vertex="1" parent="1">
                    <mxGeometry x="750" y="150" width="400" height="270" as="geometry"/>
                </mxCell>
            </root>
        </mxGraphModel>
    </diagram>
</mxfile>